<svg width="15" height="16" viewBox="0 0 15 16" fill="none" xmlns="http://www.w3.org/2000/svg">
<path d="M8.7014 9.56042L8.70147 9.56043L11.9897 9.78869C11.7433 11.3287 10.9502 12.7087 9.75653 13.6744C8.68893 14.5381 7.38551 15 6.04054 15C5.87307 15 5.70502 14.9928 5.53667 14.9784L5.55802 14.7293C5.55801 14.7293 5.558 14.7293 5.55798 14.7293C4.02004 14.5975 2.62307 13.8557 1.62316 12.6361C0.623023 11.4163 0.142109 9.86709 0.270354 8.27148L0.270355 8.27147C0.445743 6.08813 1.75971 4.18315 3.69282 3.29593C3.8658 3.2166 4.06702 3.24098 4.21834 3.36186L4.21836 3.36188C4.37088 3.48368 4.44935 3.68535 4.41697 3.88773C4.19896 5.25032 4.53099 6.60271 5.3533 7.69212L5.3533 7.69213C6.17481 8.78041 7.36473 9.44586 8.7014 9.56042ZM11.0187 9.1574C11.1916 9.07814 11.3928 9.10253 11.5442 9.22334L10.9144 8.93019L11.0186 9.15744C11.0186 9.15742 11.0187 9.15741 11.0187 9.1574ZM5.64302 13.6384L5.64311 13.6385C7.61055 13.8064 9.42828 12.6848 10.2752 10.953L10.4882 10.5174L10.0098 10.5965C9.55077 10.6724 9.08246 10.6914 8.61648 10.6513L8.61639 10.6513C7.01405 10.514 5.52553 9.68399 4.53464 8.37122L4.3351 8.52183L4.53464 8.37121C3.85099 7.4655 3.43916 6.37603 3.33581 5.24568L3.29041 4.74911L2.91967 5.08257C2.00212 5.90784 1.41395 7.07824 1.31065 8.36334L1.31065 8.36334C1.20631 9.6616 1.59793 10.9265 2.41482 11.9228L2.41483 11.9228C3.23199 12.9193 4.37885 13.5301 5.64302 13.6384Z" fill="white" stroke="#26202C" stroke-width="0.5"/>
<circle cx="8.5" cy="6.5" r="0.5" fill="white"/>
<circle cx="6.5" cy="1.5" r="0.5" fill="white"/>
<circle cx="13.5" cy="3.5" r="0.5" fill="white"/>
</svg>
