<svg width="34" height="34" viewBox="0 0 34 34" fill="none" xmlns="http://www.w3.org/2000/svg">
<circle cx="17" cy="17" r="16.5" fill="white" stroke="#F6F6F6"/>
<path d="M10.16 11.1597C10.621 10.6197 11.146 10.1387 11.722 9.72168" stroke="#34558B" stroke-width="1.5" stroke-linecap="round" stroke-linejoin="round"/>
<path d="M22 24.4824C20.57 25.4404 18.851 26.0004 17 26.0004C16.088 26.0004 15.209 25.8624 14.38 25.6104" stroke="#34558B" stroke-width="1.5" stroke-linecap="round" stroke-linejoin="round"/>
<path d="M11.3489 24C10.0679 22.965 9.08395 21.583 8.52295 20" stroke="#34558B" stroke-width="1.5" stroke-linecap="round" stroke-linejoin="round"/>
<path d="M8.52297 14C8.18997 14.94 7.99997 15.946 7.99997 17" stroke="#34558B" stroke-width="1.5" stroke-linecap="round" stroke-linejoin="round"/>
<path d="M24.463 22C25.427 20.569 26 18.855 26 17C26 12.029 21.971 8 17 8" stroke="#34558B" stroke-width="1.5" stroke-linecap="round" stroke-linejoin="round"/>
<path d="M18.768 12.7324C19.744 13.7084 19.744 15.2914 18.768 16.2684C17.792 17.2454 16.209 17.2444 15.232 16.2684C14.255 15.2924 14.256 13.7094 15.232 12.7324C16.208 11.7554 17.791 11.7564 18.768 12.7324" stroke="#34558B" stroke-width="1.5" stroke-linecap="round" stroke-linejoin="round"/>
<path d="M21.5 21C21.369 20.671 21.166 20.375 20.906 20.134V20.134C20.467 19.726 19.892 19.5 19.292 19.5C18.292 19.5 15.708 19.5 14.708 19.5C14.108 19.5 13.534 19.727 13.094 20.134V20.134C12.834 20.375 12.631 20.671 12.5 21" stroke="#34558B" stroke-width="1.5" stroke-linecap="round" stroke-linejoin="round"/>
</svg>
