<svg width="14" height="14" viewBox="0 0 14 14" fill="none" xmlns="http://www.w3.org/2000/svg">
<path d="M7 3.19922C4.90424 3.19922 3.19922 4.90424 3.19922 7C3.19922 9.09576 4.90424 10.8008 7 10.8008C9.09576 10.8008 10.8008 9.09576 10.8008 7C10.8008 4.90424 9.09576 3.19922 7 3.19922ZM7 9.98047C5.35656 9.98047 4.01953 8.64344 4.01953 7C4.01953 5.35656 5.35656 4.01953 7 4.01953C8.64344 4.01953 9.98047 5.35656 9.98047 7C9.98047 8.64344 8.64344 9.98047 7 9.98047Z" fill="#26202C"/>
<path d="M7 2.23243C7.22652 2.23243 7.41016 2.04879 7.41016 1.82227V0.410156C7.41016 0.183641 7.22652 0 7 0C6.77348 0 6.58984 0.183641 6.58984 0.410156V1.82227C6.58984 2.04879 6.77348 2.23243 7 2.23243Z" fill="#26202C"/>
<path d="M13.5898 6.58984H12.1777C11.9512 6.58984 11.7676 6.77348 11.7676 7C11.7676 7.22652 11.9512 7.41016 12.1777 7.41016H13.5898C13.8164 7.41016 14 7.22652 14 7C14 6.77348 13.8164 6.58984 13.5898 6.58984Z" fill="#26202C"/>
<path d="M7 11.7676C6.77348 11.7676 6.58984 11.9512 6.58984 12.1777V13.5898C6.58984 13.8164 6.77348 14 7 14C7.22652 14 7.41016 13.8164 7.41016 13.5898V12.1777C7.41016 11.9512 7.22652 11.7676 7 11.7676Z" fill="#26202C"/>
<path d="M2.23243 7C2.23243 6.77348 2.04879 6.58984 1.82227 6.58984H0.410156C0.183641 6.58984 0 6.77348 0 7C0 7.22652 0.183641 7.41016 0.410156 7.41016H1.82227C2.04879 7.41016 2.23243 7.22652 2.23243 7Z" fill="#26202C"/>
<path d="M10.6611 3.74901C10.7661 3.74901 10.8711 3.70898 10.9512 3.62887L11.9497 2.63035C12.1098 2.47017 12.1098 2.21049 11.9497 2.05031C11.7895 1.89013 11.5298 1.89013 11.3696 2.05031L10.3711 3.04882C10.2109 3.209 10.2109 3.46869 10.3711 3.62887C10.4512 3.70898 10.5562 3.74901 10.6611 3.74901Z" fill="#26202C"/>
<path d="M10.9512 10.3713C10.791 10.2112 10.5313 10.2112 10.3711 10.3713C10.2109 10.5315 10.2109 10.7912 10.3711 10.9514L11.3696 11.9499C11.4497 12.03 11.5547 12.07 11.6596 12.07C11.7646 12.07 11.8696 12.0299 11.9497 11.9499C12.1098 11.7897 12.1098 11.53 11.9497 11.3698L10.9512 10.3713Z" fill="#26202C"/>
<path d="M3.04883 10.3711L2.05031 11.3696C1.89013 11.5298 1.89013 11.7895 2.05031 11.9497C2.1304 12.0298 2.23537 12.0698 2.34032 12.0698C2.44527 12.0698 2.55027 12.0298 2.63033 11.9497L3.62884 10.9512C3.78902 10.791 3.78902 10.5313 3.62884 10.3711C3.46872 10.2109 3.20898 10.2109 3.04883 10.3711Z" fill="#26202C"/>
<path d="M3.04885 3.62887C3.12894 3.70896 3.23392 3.74901 3.33886 3.74901C3.44381 3.74901 3.54881 3.70898 3.62887 3.62887C3.78905 3.46869 3.78905 3.209 3.62887 3.04882L2.63036 2.05031C2.4702 1.89013 2.21049 1.89013 2.05031 2.05031C1.89013 2.21049 1.89013 2.47017 2.05031 2.63035L3.04885 3.62887Z" fill="#26202C"/>
<path d="M8.82975 2.5974C8.88123 2.61878 8.93453 2.6289 8.987 2.6289C9.14775 2.6289 9.30036 2.53377 9.3659 2.37602L9.90779 1.07205C9.99472 0.862874 9.89563 0.622823 9.68645 0.535897C9.4773 0.448999 9.23725 0.548038 9.15029 0.757245L8.6084 2.06121C8.5215 2.27042 8.62059 2.51047 8.82975 2.5974Z" fill="#26202C"/>
<path d="M13.2427 9.15008L11.9388 8.60817C11.7296 8.52125 11.4895 8.62032 11.4026 8.82952C11.3157 9.0387 11.4148 9.27876 11.624 9.36568L12.9279 9.90759C12.9794 9.92897 13.0327 9.93909 13.0852 9.93909C13.2459 9.93909 13.3985 9.84396 13.4641 9.68621C13.551 9.47706 13.4519 9.237 13.2427 9.15008Z" fill="#26202C"/>
<path d="M5.17036 11.4026C4.96115 11.3157 4.72113 11.4147 4.6342 11.6239L4.0923 12.9279C4.00538 13.1371 4.10447 13.3771 4.31365 13.4641C4.36514 13.4854 4.41843 13.4956 4.4709 13.4956C4.63166 13.4956 4.78426 13.4004 4.84981 13.2427L5.39171 11.9387C5.47861 11.7296 5.37951 11.4895 5.17036 11.4026Z" fill="#26202C"/>
<path d="M0.757252 4.84978L2.06122 5.39168C2.11271 5.41306 2.166 5.42318 2.21848 5.42318C2.37923 5.42318 2.53183 5.32805 2.59738 5.1703C2.6843 4.96112 2.58521 4.72107 2.37603 4.63415L1.07206 4.09228C0.862881 4.00541 0.62283 4.10445 0.535905 4.31363C0.448979 4.5228 0.548073 4.76286 0.757252 4.84978Z" fill="#26202C"/>
<path d="M11.4069 5.18059C11.4722 5.33878 11.625 5.43434 11.7862 5.43434C11.8383 5.43434 11.8913 5.42433 11.9425 5.4032L13.2477 4.86434C13.4571 4.7779 13.5568 4.5381 13.4704 4.3287C13.3839 4.1193 13.1441 4.01966 12.9347 4.10609L11.6295 4.64496C11.4201 4.73142 11.3204 4.97122 11.4069 5.18059Z" fill="#26202C"/>
<path d="M9.35484 11.6295C9.26841 11.4201 9.02855 11.3205 8.8192 11.4069C8.6098 11.4933 8.51014 11.7331 8.59657 11.9425L9.13543 13.2478C9.20076 13.4059 9.35361 13.5015 9.51472 13.5015C9.56686 13.5015 9.61988 13.4915 9.67107 13.4704C9.88047 13.3839 9.98014 13.1441 9.8937 12.9347L9.35484 11.6295Z" fill="#26202C"/>
<path d="M2.59319 8.8192C2.50676 8.60983 2.26701 8.5101 2.05756 8.59659L0.752304 9.13545C0.542933 9.22189 0.443238 9.46169 0.529671 9.67109C0.594995 9.82927 0.74782 9.92484 0.908956 9.92484C0.961073 9.92484 1.01412 9.91483 1.06531 9.89369L2.37056 9.35483C2.57996 9.26837 2.67963 9.02857 2.59319 8.8192Z" fill="#26202C"/>
<path d="M4.64495 2.37057C4.71028 2.52875 4.86313 2.62432 5.02424 2.62432C5.07638 2.62432 5.1294 2.61431 5.18059 2.59318C5.38999 2.50674 5.48966 2.26694 5.40322 2.05754L4.86436 0.752284C4.7779 0.542886 4.53804 0.443245 4.32872 0.529679C4.11933 0.616113 4.01966 0.855945 4.10609 1.06532L4.64495 2.37057Z" fill="#26202C"/>
</svg>
