<svg width="34" height="34" viewBox="0 0 34 34" fill="none" xmlns="http://www.w3.org/2000/svg">
<path d="M14.8181 17.0146C16.0236 15.5604 17.9763 15.5604 19.1818 17.0146" stroke="#34558B" stroke-width="1.5" stroke-linecap="round" stroke-linejoin="round"/>
<path d="M13.54 13.9148C15.2441 15.6189 15.2441 18.3818 13.54 20.0859C11.8359 21.79 9.073 21.79 7.3689 20.0859C5.66479 18.3818 5.66479 15.6189 7.3689 13.9148C9.07301 12.2107 11.8359 12.2107 13.54 13.9148" stroke="#34558B" stroke-width="1.5" stroke-linecap="round" stroke-linejoin="round"/>
<path d="M26.6311 13.9148C28.3352 15.6189 28.3352 18.3818 26.6311 20.0859C24.927 21.79 22.1641 21.79 20.46 20.0859C18.7559 18.3818 18.7559 15.6189 20.46 13.9148C22.1641 12.2107 24.927 12.2107 26.6311 13.9148" stroke="#34558B" stroke-width="1.5" stroke-linecap="round" stroke-linejoin="round"/>
<path d="M6.09091 17.0005H5" stroke="#34558B" stroke-width="1.5" stroke-linecap="round" stroke-linejoin="round"/>
<path d="M29.0001 17.0005H27.9092" stroke="#34558B" stroke-width="1.5" stroke-linecap="round" stroke-linejoin="round"/>
</svg>
