<?xml version="1.0" encoding="utf-8"?><svg xmlns="http://www.w3.org/2000/svg" xmlns:xlink="http://www.w3.org/1999/xlink"><symbol viewBox="0 0 11 12" id="ar-sl" xmlns="http://www.w3.org/2000/svg"><path d="M5.95 1L1 5.95l4.95 4.95"/></symbol><symbol viewBox="0 0 22 11" id="eye" xmlns="http://www.w3.org/2000/svg"><path d="M1.09 6.09c5.473-7.047 14.346-7.047 19.82 0m-6.479-3.772a4.5 4.5 0 1 1-6.364 6.364 4.5 4.5 0 0 1 6.364-6.364"/></symbol><symbol viewBox="0 0 11 22" id="face" xmlns="http://www.w3.org/2000/svg"><path d="M6.767 7.833V5.299c0-.7.567-1.267 1.267-1.267H9.3V.865H6.767a3.8 3.8 0 0 0-3.8 3.8v3.168H.431V11h2.534v10.135h3.8V11H9.3l1.267-3.167h-3.8z"/></symbol><symbol viewBox="0 0 24 24" id="inst" xmlns="http://www.w3.org/2000/svg"><path d="M1.5 1.633C-.386 3.592 0 5.673 0 11.995c0 5.25-.916 10.513 3.878 11.752 1.497.385 14.761.385 16.256-.002 1.996-.515 3.62-2.134 3.842-4.957.031-.394.031-13.185-.001-13.587-.236-3.007-2.087-4.74-4.526-5.091C18.89.029 18.778.005 15.91 0 5.737.005 3.507-.448 1.5 1.633z"/><path d="M11.998 3.139c-3.631 0-7.079-.323-8.396 3.057-.544 1.396-.465 3.209-.465 5.805 0 2.278-.073 4.419.465 5.804 1.314 3.382 4.79 3.058 8.394 3.058 3.477 0 7.062.362 8.395-3.058.545-1.41.465-3.196.465-5.804 0-3.462.191-5.697-1.488-7.375-1.7-1.7-3.999-1.487-7.374-1.487zm-.794 1.597c7.574-.012 8.538-.854 8.006 10.843-.189 4.137-3.339 3.683-7.211 3.683-7.06 0-7.263-.202-7.263-7.265 0-7.145.56-7.257 6.468-7.263zm5.524 1.471a1.063 1.063 0 1 0 0 2.126 1.063 1.063 0 0 0 0-2.126zm-4.73 1.243a4.55 4.55 0 1 0 .001 9.101 4.55 4.55 0 0 0-.001-9.101zm0 1.597c3.905 0 3.91 5.908 0 5.908-3.904 0-3.91-5.908 0-5.908z"/></symbol><symbol viewBox="0 0 223 68" id="logo" xmlns="http://www.w3.org/2000/svg"><path d="M167.24 51.329v-1.31c1.199-.027 2.189-.321 2.956-.892.768-.56 1.158-1.815 1.158-3.768V20.115h-8.731v14.647c0 6.68.614 17.876-9.331 17.139-1.924 0-3.444-.572-4.602-1.732-1.158-1.153-1.743-2.496-1.743-3.983 0-1.465.432-2.652 1.268-3.562.865-.932 1.953-1.376 3.278-1.376 2.552 0 3.836 1.548 3.836 4.644 0 1.41.265 2.12.822 2.12 1.046 0 1.856-.883 2.427-2.625.572-1.742.865-5.287.865-10.625v-9.737c0-2.191-.293-3.695-.893-4.505-.585-.82-1.617-1.253-3.082-1.325v-1.327h29.485v1.327c-2.372.044-3.557 1.547-3.557 4.505v21.504c0 1.664.237 2.846.739 3.6.502.755 1.437 1.16 2.818 1.216v1.309H167.24zM17.643 17.869l6.862 21.687h.53l7.322-21.688H44.2v1.437h-1.311c-.782 0-1.27.156-1.507.477a1.723 1.723 0 0 0-.335 1.044v.31c0 .111.014.206.056.317l3.724 25.36c.21 1.431.544 2.341 1.018 2.718.474.389 1.479.555 3.026.528v1.353H33.809V50.06h.892c.377 0 .683-.012.907-.056.237-.028.418-.066.558-.094a.865.865 0 0 0 .418-.35c.111-.155.153-.405.153-.754v-.267c0-.11-.014-.205-.041-.321l-3.361-22.925h-.586l-8.69 26.12h-4.225l-8.438-26.12h-.53L7.922 46.225c0 .044 0 .083-.014.139a.282.282 0 0 0-.042.127v.15c0 .072 0 .155-.014.239-.028.1-.028.194-.028.293-.042.278-.07.489-.111.627a2.076 2.076 0 0 0-.042.417v.172c0 .654.181 1.098.572 1.337.376.222.892.333 1.52.333h1.464v1.353H0V50.06h1.311c1.436 0 2.343-.389 2.733-1.182a9.073 9.073 0 0 0 .782-2.652L7.978 24.02v-.183c0-.055.013-.11.056-.177v-.1c0-.139.013-.294.055-.46.028-.156.07-.35.098-.6.042-.1.07-.222.083-.36.014-.14.028-.283.028-.422.028-.205.056-.416.07-.627.028-.21.028-.377.028-.472 0-.072 0-.144-.028-.21-.014-.073-.042-.14-.07-.211-.111-.211-.376-.417-.795-.6-.418-.194-1.116-.294-2.091-.294h-.894v-1.437h13.125zm72.47 33.543v-1.326c1.436 0 2.425-.377 2.97-1.115.53-.738.795-2.213.795-4.422V20.132h-3.333c-2.343 0-3.961.405-4.868 1.254-.92.838-1.632 2.58-2.162 5.243h-1.339v-8.76h33.445v8.76h-1.325c-.432-2.397-1.06-4.084-1.911-5.049-.823-.96-2.51-1.448-5.048-1.448h-3.403v24.417c0 2.292.264 3.767.809 4.467.53.682 1.52 1.043 2.942 1.07v1.326H90.112zm-38.174 0v-1.326c1.59 0 2.692-.377 3.291-1.115.6-.738.88-2.213.88-4.422V23.311c-.099-1.437-.377-2.43-.838-3.002-.6-.737-1.687-1.114-3.277-1.114v-1.327h27.001v8.76h-1.492c-.474-2.396-1.158-4.083-2.106-5.048-.92-.96-2.79-1.448-5.607-1.448h-3.765V33.62c2.148-.045 3.612-.467 4.35-1.243.796-.821 1.396-2.258 1.8-4.311h1.27V41.22h-1.27c-.404-2.052-1.004-3.49-1.8-4.31-.738-.783-2.202-1.199-4.35-1.243v13.487h3.765c2.818 0 4.686-.488 5.607-1.453.948-.96 1.632-2.647 2.106-5.05h1.492v8.761H51.94zm76.974-13.387l-3.166-9.01-3.222 9.01h6.388zm-8.982 7.223c-.251.81-.39 1.52-.39 2.164 0 .794.236 1.448.683 1.953.46.5 1.031.75 1.743.75v1.297h-10.572v-1.298c.795-.067 1.534-.46 2.246-1.154.711-.699 1.422-1.953 2.12-3.784 2.831-7.262 5.676-14.541 8.508-21.826l.083-.25a35.5 35.5 0 0 0 .21-.599c.041-.1.097-.222.139-.36.041-.14.07-.283.098-.422a9.47 9.47 0 0 0 .18-.627 4.05 4.05 0 0 0 .099-.472c.013-.072.013-.144.013-.21a.564.564 0 0 0-.041-.211c-.071-.211-.308-.417-.684-.6-.363-.183-.976-.277-1.854-.294v-1.437h10.32c3.71 9.92 7.434 19.824 11.13 29.722.321.882.669 1.492 1.018 1.83.363.35.781.583 1.283.694v1.298h-15.175v-1.298c1.005 0 1.507-.405 1.507-1.21 0-.321-.097-.798-.335-1.425l-.167-.489c-.669-1.853-1.325-3.722-1.995-5.592l-.153-.416h-8.494l-.572 1.603-.948 2.663zm85.357 6.18v-1.325c1.199-.017 2.189-.305 2.956-.877.767-.56 1.158-1.814 1.158-3.767V20.215h-8.731v14.642c0 6.669.613 17.865-9.331 17.143-1.925 0-3.459-.571-4.616-1.73-1.144-1.16-1.73-2.497-1.73-4 0-1.454.433-2.642 1.269-3.557.851-.921 1.939-1.382 3.277-1.382 2.553 0 3.836 1.56 3.836 4.655 0 1.41.265 2.12.823 2.12 1.046 0 1.856-.877 2.427-2.62.572-1.741.865-5.286.865-10.63v-9.73c0-2.209-.307-3.701-.907-4.506-.586-.826-1.604-1.26-3.082-1.342v-1.31H223v1.31c-2.385.055-3.57 1.564-3.57 4.521v21.505c0 1.648.251 2.846.753 3.6.502.75 1.436 1.155 2.817 1.199v1.326h-17.712zM15.748 13.064h-4.397v-.502a7.86 7.86 0 0 0 .613-.047c.249-.029.42-.07.514-.12a.891.891 0 0 0 .317-.305.818.818 0 0 0 .103-.43V4.445h-.105l-3.376 8.461h-.346L5.855 4.271h-.09v5.92c0 .574.035 1.01.107 1.31.074.298.184.513.332.641.102.098.315.191.637.28.32.09.53.136.628.14v.502H3.472v-.502c.21-.018.43-.052.66-.104.23-.05.408-.13.534-.232.162-.129.275-.33.334-.6.06-.27.091-.723.091-1.355V5.197a2.1 2.1 0 0 0-.105-.72 1.114 1.114 0 0 0-.3-.454 1.367 1.367 0 0 0-.533-.28 2.618 2.618 0 0 0-.623-.105v-.501h3.38l2.822 7.456 2.426-6.236c.09-.23.164-.47.229-.719.062-.25.098-.417.1-.501h3.247v.501a3.78 3.78 0 0 0-.499.063c-.203.038-.35.073-.442.105a.515.515 0 0 0-.322.279 1.1 1.1 0 0 0-.084.427v7.148c0 .165.03.301.084.413.055.112.162.21.322.294.084.047.232.09.447.129.212.04.382.062.508.066v.502zm16.436 0h-4.126v-.502c.366-.023.666-.069.908-.14.238-.07.358-.155.358-.258a.942.942 0 0 0-.055-.315l-.821-2.223h-3.484a18.96 18.96 0 0 0-.54 1.523c-.059.2-.102.366-.126.49a1.707 1.707 0 0 0-.035.308c0 .186.147.332.441.434.294.103.625.162.993.181v.502h-3.74v-.502c.121-.01.271-.035.455-.08.182-.044.33-.103.447-.177.186-.127.331-.258.434-.397.103-.138.203-.327.3-.57a377.357 377.357 0 0 0 1.65-4.197l1.61-4.147h.56l3.31 8.561c.069.181.148.33.236.442.088.112.213.22.373.327.104.067.245.121.417.165.175.045.318.069.435.073v.502zm-3.99-4.054l-1.506-3.856-1.483 3.856h2.99zm17.742-3.094h-.53a4.492 4.492 0 0 0-.544-1.277 3.333 3.333 0 0 0-.459-.602.926.926 0 0 0-.54-.28 6.424 6.424 0 0 0-.584-.047c-.23-.01-.45-.014-.66-.014h-1.425v7.952a.77.77 0 0 0 .113.415.816.816 0 0 0 .334.29c.093.043.26.085.504.133.245.045.444.072.596.076v.502h-4.455v-.502c.141-.01.328-.023.562-.045.233-.021.386-.048.456-.08a.595.595 0 0 0 .305-.268.892.892 0 0 0 .096-.43V4.58c0-.152-.026-.288-.077-.408-.052-.12-.16-.215-.325-.291a2.528 2.528 0 0 0-.508-.16 4.085 4.085 0 0 0-.509-.084v-.501h7.65v2.779zm16.913 7.148h-4.126v-.502l.483-.042c.21-.017.355-.046.434-.084a.579.579 0 0 0 .303-.255.882.882 0 0 0 .098-.442V8.208h-4.655v3.452c0 .165.026.301.08.413.056.112.163.21.323.294.081.043.225.083.43.126.205.04.367.065.484.07v.5h-4.125v-.5l.482-.043c.21-.017.356-.046.435-.084a.579.579 0 0 0 .303-.255.883.883 0 0 0 .098-.442V4.58a.932.932 0 0 0-.09-.408.64.64 0 0 0-.311-.291 2.717 2.717 0 0 0-.456-.16 2.732 2.732 0 0 0-.461-.084v-.501h4.125v.501a3.386 3.386 0 0 0-.484.063 3.814 3.814 0 0 0-.43.105.51.51 0 0 0-.322.281 1.08 1.08 0 0 0-.081.425v3.08h4.655V4.584a.935.935 0 0 0-.09-.41.624.624 0 0 0-.311-.29 2.502 2.502 0 0 0-.456-.162 2.732 2.732 0 0 0-.46-.084v-.501h4.125v.501a3.389 3.389 0 0 0-.485.063 3.814 3.814 0 0 0-.43.105.515.515 0 0 0-.322.279 1.1 1.1 0 0 0-.081.427v7.148c0 .165.026.301.08.413.056.112.163.21.323.294.081.043.225.083.43.126.205.04.368.065.485.07v.5zm17.55 0h-4.126v-.502l.495-.042c.217-.017.365-.046.446-.084a.6.6 0 0 0 .308-.255.886.886 0 0 0 .098-.444V5.55l-4.784 5.987v.16c0 .163.028.294.08.394.056.1.16.191.32.275.08.043.227.083.442.126.215.04.382.065.504.07v.5h-4.097v-.5l.483-.043c.21-.017.355-.046.434-.084a.578.578 0 0 0 .303-.255.882.882 0 0 0 .098-.442V4.58a.932.932 0 0 0-.09-.408.64.64 0 0 0-.31-.291 2.717 2.717 0 0 0-.457-.16 2.734 2.734 0 0 0-.46-.084v-.501h4.096v.501a3.455 3.455 0 0 0-.487.063 3.955 3.955 0 0 0-.432.105.505.505 0 0 0-.318.279 1.1 1.1 0 0 0-.08.427v6.033l4.784-5.98a.86.86 0 0 0-.091-.416.68.68 0 0 0-.318-.267 2.638 2.638 0 0 0-.482-.158 3.636 3.636 0 0 0-.484-.086v-.501h4.125v.501a3.386 3.386 0 0 0-.485.063 4.025 4.025 0 0 0-.43.105.515.515 0 0 0-.322.279 1.1 1.1 0 0 0-.08.427v7.148c0 .165.026.301.08.413.055.112.163.21.323.294.08.043.224.083.43.126.205.04.367.065.484.07v.5zM95.69 5.83h-.487a3.426 3.426 0 0 0-.227-.6 5.41 5.41 0 0 0-.368-.653 3.416 3.416 0 0 0-.458-.564c-.167-.16-.327-.253-.48-.277a7.922 7.922 0 0 0-.547-.04 14.28 14.28 0 0 0-.608-.015h-.406v7.939c0 .152.033.293.097.422a.64.64 0 0 0 .342.296c.083.034.26.077.528.134.267.055.475.086.623.09v.502h-4.684v-.502c.13-.01.33-.028.599-.054.267-.029.453-.065.556-.105a.694.694 0 0 0 .341-.263.857.857 0 0 0 .108-.458v-8h-.406c-.146 0-.325.002-.54.009-.215.007-.42.024-.616.045-.152.02-.312.113-.48.277a3.869 3.869 0 0 0-.458.564 5.044 5.044 0 0 0-.594 1.253h-.487V3.137h8.652V5.83zm14.642-1.52a4.856 4.856 0 0 1 1.029 1.654c.246.647.37 1.363.37 2.146 0 .79-.126 1.507-.377 2.151a4.766 4.766 0 0 1-1.051 1.645 4.494 4.494 0 0 1-1.508 1.036 4.651 4.651 0 0 1-1.834.365 4.65 4.65 0 0 1-1.912-.389 4.417 4.417 0 0 1-1.509-1.081 4.899 4.899 0 0 1-.988-1.65 5.88 5.88 0 0 1-.361-2.077c0-.807.127-1.528.377-2.16.253-.633.6-1.18 1.044-1.64.436-.46.947-.81 1.528-1.051a4.655 4.655 0 0 1 1.821-.365c.657 0 1.277.124 1.86.37a4.472 4.472 0 0 1 1.511 1.045zm-1.041 7.05c.263-.428.452-.908.571-1.447a8.344 8.344 0 0 0 .179-1.803c0-.683-.067-1.308-.201-1.879a4.656 4.656 0 0 0-.582-1.459 2.803 2.803 0 0 0-.967-.928 2.627 2.627 0 0 0-1.33-.335c-.561 0-1.036.13-1.427.387a2.98 2.98 0 0 0-.96 1.032c-.232.41-.406.893-.521 1.444a8.573 8.573 0 0 0-.172 1.738c0 .673.06 1.282.182 1.824.122.544.313 1.024.575 1.447.251.41.568.733.95.964.385.232.841.346 1.373.346.499 0 .95-.117 1.351-.35a2.72 2.72 0 0 0 .979-.982zm17.085-5.444h-.53a4.463 4.463 0 0 0-.544-1.277 3.388 3.388 0 0 0-.459-.602.925.925 0 0 0-.539-.28 6.442 6.442 0 0 0-.585-.047 15.09 15.09 0 0 0-.659-.014h-1.425v7.952a.77.77 0 0 0 .112.415.816.816 0 0 0 .334.29c.093.043.26.085.504.133.246.045.444.072.597.076v.502h-4.455v-.502c.141-.01.327-.023.561-.045.234-.021.387-.048.456-.08a.594.594 0 0 0 .305-.268.886.886 0 0 0 .096-.43V4.58c0-.152-.026-.288-.076-.408-.053-.12-.16-.215-.325-.291a2.538 2.538 0 0 0-.509-.16 4.082 4.082 0 0 0-.508-.084v-.501h7.649v2.779zm14.64-1.607a4.856 4.856 0 0 1 1.029 1.655c.246.647.37 1.363.37 2.146 0 .79-.127 1.507-.377 2.151a4.766 4.766 0 0 1-1.051 1.645 4.503 4.503 0 0 1-1.508 1.036 4.655 4.655 0 0 1-1.834.365 4.65 4.65 0 0 1-1.912-.389 4.417 4.417 0 0 1-1.509-1.081 4.917 4.917 0 0 1-.989-1.65 5.901 5.901 0 0 1-.36-2.077c0-.807.127-1.528.377-2.16a5.016 5.016 0 0 1 1.043-1.64c.437-.46.948-.81 1.528-1.051a4.663 4.663 0 0 1 1.822-.365c.657 0 1.277.124 1.86.37a4.472 4.472 0 0 1 1.511 1.045zm-1.041 7.05c.263-.427.451-.907.571-1.446a8.344 8.344 0 0 0 .179-1.803c0-.683-.067-1.308-.201-1.879a4.656 4.656 0 0 0-.582-1.459 2.803 2.803 0 0 0-.967-.928 2.627 2.627 0 0 0-1.33-.335c-.561 0-1.036.13-1.428.387a2.98 2.98 0 0 0-.959 1.032c-.232.41-.406.893-.521 1.444a8.573 8.573 0 0 0-.172 1.738c0 .673.06 1.282.182 1.824.121.544.312 1.024.575 1.447.251.41.568.733.95.964.385.232.841.346 1.373.346.499 0 .95-.117 1.351-.35.401-.234.728-.561.979-.982zm17.113-5.772c0 .518-.1.976-.303 1.375-.203.4-.484.73-.842.99a3.626 3.626 0 0 1-1.165.576 4.867 4.867 0 0 1-1.349.181h-1.111v3.001c0 .165.027.306.082.43.052.124.164.217.334.282a2.1 2.1 0 0 0 .444.093c.215.026.411.043.587.047v.502h-4.254v-.502l.482-.047c.21-.024.358-.055.44-.093a.588.588 0 0 0 .303-.265.946.946 0 0 0 .093-.447V4.553c0-.163-.024-.308-.07-.44-.047-.13-.157-.229-.329-.293a3.067 3.067 0 0 0-.525-.129 6.4 6.4 0 0 0-.451-.053v-.501h4.526c.922 0 1.671.222 2.247.669.575.446.861 1.038.861 1.78zm-2.124 1.688a1.86 1.86 0 0 0 .315-.695c.05-.241.076-.456.076-.647 0-.265-.031-.535-.093-.81a1.904 1.904 0 0 0-.325-.72 1.634 1.634 0 0 0-.642-.512c-.267-.121-.597-.181-.993-.181h-.984v4.383h.712c.504 0 .912-.078 1.225-.234.315-.157.551-.35.709-.585zm13.475 6.032a4.321 4.321 0 0 1-3.142-1.358 4.916 4.916 0 0 1-.991-1.607c-.246-.632-.37-1.346-.37-2.139 0-.795.122-1.513.363-2.16a5.083 5.083 0 0 1 1.005-1.672c.425-.46.924-.818 1.502-1.072a4.594 4.594 0 0 1 1.85-.377c.489 0 .931.06 1.325.182.396.12.774.288 1.132.508l.286-.475h.559l.057 3.538h-.573a8.435 8.435 0 0 0-.334-1.12 4.285 4.285 0 0 0-.523-1.021 2.544 2.544 0 0 0-.792-.743 2.058 2.058 0 0 0-1.053-.267c-.452 0-.869.1-1.259.3a2.869 2.869 0 0 0-1.005.889c-.269.38-.482.86-.635 1.444a7.742 7.742 0 0 0-.229 1.953c0 .635.081 1.215.241 1.745.16.53.387.996.685 1.397.296.396.65.707 1.056.93a2.76 2.76 0 0 0 1.36.338 2.9 2.9 0 0 0 1.037-.18 2.81 2.81 0 0 0 .823-.472c.232-.206.435-.44.611-.7.177-.262.32-.546.433-.854l.53.25c-.402.986-.932 1.688-1.593 2.11-.659.423-1.447.633-2.356.633zm20.083-.243h-2.736a30.684 30.684 0 0 0-.561-1.483 35.89 35.89 0 0 0-.561-1.3c-.313-.705-.63-1.183-.948-1.428-.32-.249-.749-.373-1.289-.373h-.508v3.18a.95.95 0 0 0 .086.413.66.66 0 0 0 .315.294c.074.033.212.071.413.12.203.044.37.07.504.075v.502h-4.126v-.502l.475-.042c.208-.017.354-.046.439-.084a.609.609 0 0 0 .308-.267.886.886 0 0 0 .096-.43V4.58a.965.965 0 0 0-.081-.413c-.055-.114-.163-.21-.323-.286a2.94 2.94 0 0 0-.914-.244v-.501h4.126v.501a3.467 3.467 0 0 0-.485.063 3.666 3.666 0 0 0-.432.105.52.52 0 0 0-.318.279 1.09 1.09 0 0 0-.083.427v3.395h.651c.175 0 .344-.038.509-.112.167-.074.32-.184.461-.327.2-.205.363-.456.482-.752.122-.296.253-.654.392-1.072.131-.387.264-.745.405-1.077a2.97 2.97 0 0 1 .614-.914 1.995 1.995 0 0 1 1.449-.602c.201 0 .375.024.525.074.148.048.275.117.377.205a.767.767 0 0 1 .211.28.897.897 0 0 1 .069.348.99.99 0 0 1-.046.301.728.728 0 0 1-.346.43.692.692 0 0 1-.336.067 1 1 0 0 1-.404-.077.987.987 0 0 1-.298-.21 1.563 1.563 0 0 1-.227-.313 9.55 9.55 0 0 1-.193-.36 1.27 1.27 0 0 0-.332.33 2.854 2.854 0 0 0-.241.42c-.072.15-.132.308-.187.475-.052.17-.114.355-.184.558-.057.175-.121.366-.195.578a4.5 4.5 0 0 1-.26.59 5.316 5.316 0 0 1-.361.587c-.136.196-.301.38-.492.552v.097c.516.144.948.373 1.289.69.344.316.631.724.865 1.223.131.284.274.592.429.921.158.33.287.61.39.838.143.313.284.52.42.626a.908.908 0 0 0 .413.19 13.016 13.016 0 0 0 .754.09v.503zm16.689 0h-4.126v-.502l.494-.042c.218-.017.366-.046.447-.084a.602.602 0 0 0 .308-.255.891.891 0 0 0 .098-.444V5.55l-4.785 5.987v.16c0 .163.029.294.082.394.054.1.16.191.319.275.079.043.227.083.442.126.215.04.382.065.504.07v.5h-4.097v-.5l.482-.043c.21-.017.356-.046.435-.084a.578.578 0 0 0 .303-.255.877.877 0 0 0 .098-.442V4.58a.927.927 0 0 0-.091-.408.643.643 0 0 0-.31-.291 2.738 2.738 0 0 0-.456-.16 2.737 2.737 0 0 0-.461-.084v-.501h4.097v.501a3.454 3.454 0 0 0-.487.063 3.885 3.885 0 0 0-.432.105.507.507 0 0 0-.318.279 1.097 1.097 0 0 0-.081.427v6.033l4.784-5.98a.87.87 0 0 0-.09-.416.678.678 0 0 0-.318-.267 3.645 3.645 0 0 0-.967-.243v-.502h4.126v.501a3.379 3.379 0 0 0-.485.063 4.066 4.066 0 0 0-.43.105.514.514 0 0 0-.322.279 1.097 1.097 0 0 0-.081.427v7.148c0 .165.026.301.081.413.055.112.162.21.322.294.081.043.225.083.43.126.205.04.368.065.485.07v.5zm17.555 0h-4.126v-.502l.494-.042c.218-.017.366-.046.447-.084a.602.602 0 0 0 .308-.255.891.891 0 0 0 .098-.444V5.55l-4.785 5.987v.16c0 .163.029.294.082.394.054.1.16.191.319.275.079.043.227.083.442.126.215.04.382.065.504.07v.5h-4.097v-.5l.482-.043c.21-.017.356-.046.435-.084a.578.578 0 0 0 .303-.255.877.877 0 0 0 .098-.442V4.58a.927.927 0 0 0-.091-.408.638.638 0 0 0-.31-.291 2.738 2.738 0 0 0-.456-.16 2.737 2.737 0 0 0-.461-.084v-.501h4.097v.501a3.454 3.454 0 0 0-.487.063 3.885 3.885 0 0 0-.432.105.507.507 0 0 0-.318.279 1.097 1.097 0 0 0-.081.427v6.033l4.784-5.98a.87.87 0 0 0-.09-.416.678.678 0 0 0-.318-.267 3.645 3.645 0 0 0-.967-.243v-.502h4.126v.501a3.379 3.379 0 0 0-.485.063 4.066 4.066 0 0 0-.43.105.514.514 0 0 0-.322.279 1.097 1.097 0 0 0-.081.427v7.148c0 .165.026.301.081.413.055.112.162.21.322.294.081.043.225.083.43.126.205.04.368.065.485.07v.5zm-3.593-11.54a6.212 6.212 0 0 1-.156-.397 1.337 1.337 0 0 1-.09-.442c0-.243.079-.418.234-.525a.87.87 0 0 1 .506-.16.63.63 0 0 1 .501.224.85.85 0 0 1 .191.571c0 .153-.048.334-.143.537a1.434 1.434 0 0 1-.43.53c-.224.172-.492.31-.807.416-.313.105-.747.157-1.301.157-.494 0-.914-.055-1.26-.164-.349-.108-.624-.244-.829-.409a1.489 1.489 0 0 1-.437-.523 1.28 1.28 0 0 1-.136-.544c0-.232.065-.423.191-.57a.621.621 0 0 1 .494-.225.91.91 0 0 1 .514.153c.155.103.234.28.234.532 0 .143-.029.29-.084.435-.057.148-.11.281-.162.403.195.186.429.306.699.358.27.055.528.081.776.081.227 0 .485-.028.774-.088.289-.057.53-.174.721-.35zm-88.895 60.458h-.336a2.852 2.852 0 0 0-.345-.81 2.124 2.124 0 0 0-.291-.381.586.586 0 0 0-.342-.177 4.089 4.089 0 0 0-.371-.03 9.942 9.942 0 0 0-.418-.01h-.903v5.043c0 .1.024.188.071.263a.518.518 0 0 0 .212.183c.059.028.165.055.319.085.156.029.282.046.379.049v.317h-2.825v-.317c.089-.007.207-.016.356-.03a1.05 1.05 0 0 0 .289-.05.381.381 0 0 0 .194-.17.575.575 0 0 0 .06-.273v-4.538a.678.678 0 0 0-.048-.259.39.39 0 0 0-.206-.185 1.588 1.588 0 0 0-.323-.101 2.563 2.563 0 0 0-.322-.053v-.318h4.85v1.762zm5.977-1.019c.279.29.495.64.653 1.05a3.8 3.8 0 0 1 .234 1.36c0 .501-.08.956-.239 1.364-.16.409-.381.757-.666 1.043a2.847 2.847 0 0 1-.957.657 2.947 2.947 0 0 1-1.162.232 2.95 2.95 0 0 1-1.213-.247 2.808 2.808 0 0 1-.957-.686 3.107 3.107 0 0 1-.626-1.046 3.737 3.737 0 0 1-.229-1.317c0-.511.08-.969.239-1.37.161-.4.38-.748.662-1.04.277-.29.601-.513.969-.666a2.95 2.95 0 0 1 1.155-.231 3 3 0 0 1 1.179.234c.369.158.689.379.958.663zm-.66 4.47c.167-.27.286-.575.362-.917.076-.34.114-.72.114-1.143 0-.433-.043-.83-.128-1.191a2.934 2.934 0 0 0-.369-.925 1.784 1.784 0 0 0-.613-.589 1.663 1.663 0 0 0-.843-.212c-.356 0-.657.082-.906.245-.248.162-.451.38-.608.654a3.15 3.15 0 0 0-.33.916c-.073.35-.109.718-.109 1.102 0 .427.038.813.115 1.157.077.345.198.65.365.917.159.26.36.465.602.612.244.147.533.22.871.22a1.672 1.672 0 0 0 1.477-.845zm7.546-3.66c0 .329-.064.62-.193.872a1.724 1.724 0 0 1-.534.628 2.291 2.291 0 0 1-.739.365 3.085 3.085 0 0 1-.855.115h-.704v1.903c0 .104.017.194.051.273.034.078.105.137.212.178.053.021.147.041.282.06.136.016.26.026.372.03v.317h-2.697v-.317l.305-.03a1 1 0 0 0 .279-.06.371.371 0 0 0 .192-.168.592.592 0 0 0 .059-.283v-4.538a.841.841 0 0 0-.044-.279c-.03-.083-.099-.145-.208-.186a1.958 1.958 0 0 0-.334-.082 3.904 3.904 0 0 0-.286-.033v-.318h2.871c.584 0 1.059.14 1.424.424.365.283.547.658.547 1.13zm-1.348 1.07c.102-.14.167-.287.2-.44a2.03 2.03 0 0 0 .049-.41c0-.168-.02-.34-.06-.514a1.213 1.213 0 0 0-.205-.457 1.047 1.047 0 0 0-.408-.324 1.51 1.51 0 0 0-.629-.115h-.624v2.78h.451c.319 0 .578-.05.777-.149.2-.1.349-.222.449-.37zm7.546-1.88c.278.29.495.64.652 1.05a3.8 3.8 0 0 1 .235 1.36c0 .501-.081.956-.24 1.364-.16.409-.381.757-.666 1.043a2.853 2.853 0 0 1-.956.657 2.948 2.948 0 0 1-1.163.232c-.437 0-.842-.082-1.213-.247a2.804 2.804 0 0 1-.956-.686 3.108 3.108 0 0 1-.627-1.046 3.737 3.737 0 0 1-.229-1.317c0-.511.081-.969.24-1.37.16-.4.38-.748.661-1.04.277-.29.601-.513.969-.666a2.954 2.954 0 0 1 1.155-.231 3 3 0 0 1 1.179.234c.37.158.689.379.959.663zm-.661 4.47c.167-.27.287-.575.362-.917.076-.34.114-.72.114-1.143 0-.433-.043-.83-.127-1.191a2.958 2.958 0 0 0-.37-.925 1.776 1.776 0 0 0-.613-.589 1.663 1.663 0 0 0-.843-.212c-.356 0-.657.082-.905.245-.248.162-.451.38-.609.654-.147.26-.257.567-.33.916-.073.35-.109.718-.109 1.102 0 .427.038.813.115 1.157.077.345.199.65.365.917.159.26.36.465.603.612.243.147.532.22.87.22a1.67 1.67 0 0 0 1.477-.845zm6.629.308v-5.158h-1.753c0 1.06-.132 2.085-.397 3.073-.265.989-.598 1.819-1.001 2.486h2.74c.143 0 .245-.033.312-.098.065-.065.099-.167.099-.303zm-2.996.764a.58.58 0 0 0-.344.202c-.11.12-.21.257-.298.41a2.94 2.94 0 0 0-.221.472 6.056 6.056 0 0 0-.138.397h-.336v-1.844h.613c.359-.539.684-1.275.98-2.204.295-.931.442-1.76.442-2.484 0-.223-.02-.392-.061-.509a.414.414 0 0 0-.229-.256 1.343 1.343 0 0 0-.349-.095 7.322 7.322 0 0 0-.351-.056v-.318h5.068v.318a2.601 2.601 0 0 0-.58.106.325.325 0 0 0-.204.178.69.69 0 0 0-.052.271v4.613c0 .167.041.282.124.345.084.064.217.096.401.096h.374v1.839h-.336a4.723 4.723 0 0 0-.115-.382 3.286 3.286 0 0 0-.221-.487 2.313 2.313 0 0 0-.278-.416.552.552 0 0 0-.341-.196h-3.548zm8.824.164a2.746 2.746 0 0 1-1.992-.861 3.115 3.115 0 0 1-.628-1.02 3.72 3.72 0 0 1-.235-1.356c0-.504.077-.96.23-1.37a3.23 3.23 0 0 1 .638-1.06c.269-.291.585-.519.952-.679.366-.159.757-.24 1.173-.24a2.842 2.842 0 0 1 1.558.438l.181-.301h.355l.036 2.244h-.363a5.347 5.347 0 0 0-.212-.71 2.744 2.744 0 0 0-.332-.648 1.622 1.622 0 0 0-.502-.471 1.306 1.306 0 0 0-.668-.17c-.286 0-.551.064-.798.191a1.815 1.815 0 0 0-.637.563 2.79 2.79 0 0 0-.403.916c-.097.37-.145.783-.145 1.238 0 .403.051.77.153 1.107.101.336.245.631.434.885.188.252.412.449.669.59.258.143.545.214.863.214a1.84 1.84 0 0 0 1.18-.413 2.39 2.39 0 0 0 .661-.986l.336.16c-.254.625-.59 1.07-1.01 1.338-.417.268-.917.4-1.494.4zm9.429-.154h-1.735a21.756 21.756 0 0 0-.712-1.765c-.198-.447-.399-.75-.6-.906-.203-.157-.476-.236-.818-.236h-.322v2.016c0 .097.018.185.054.262a.42.42 0 0 0 .2.186c.047.022.135.046.262.076.128.029.234.046.319.049v.317h-2.616v-.317l.302-.028a.927.927 0 0 0 .278-.053.388.388 0 0 0 .195-.17.563.563 0 0 0 .061-.272v-4.538a.61.61 0 0 0-.052-.262.401.401 0 0 0-.204-.182 1.858 1.858 0 0 0-.58-.154v-.318h2.616v.318a2.208 2.208 0 0 0-.307.04 2.367 2.367 0 0 0-.274.066.327.327 0 0 0-.201.177.689.689 0 0 0-.053.271v2.153h.413c.11 0 .218-.024.322-.072a.96.96 0 0 0 .293-.207c.127-.13.23-.289.305-.477.078-.187.161-.414.249-.68.083-.245.168-.472.257-.682a1.89 1.89 0 0 1 .389-.58 1.264 1.264 0 0 1 .919-.382c.127 0 .238.016.333.047.094.03.174.075.239.13a.49.49 0 0 1 .133.178.618.618 0 0 1 .015.412.463.463 0 0 1-.219.272.444.444 0 0 1-.214.042.627.627 0 0 1-.255-.048.626.626 0 0 1-.19-.133.986.986 0 0 1-.143-.198 5.37 5.37 0 0 1-.123-.23.817.817 0 0 0-.211.21 1.799 1.799 0 0 0-.152.266 2.316 2.316 0 0 0-.118.301 16.26 16.26 0 0 1-.117.355c-.036.11-.077.231-.124.366a3.238 3.238 0 0 1-.394.746 2.036 2.036 0 0 1-.312.35v.062c.327.09.601.236.818.438.218.2.399.458.548.775l.272.584c.1.209.182.386.247.531.091.199.18.33.267.397a.573.573 0 0 0 .262.121 9.05 9.05 0 0 0 .478.058v.317zm6.594 0h-2.615v-.318c.231-.016.422-.044.575-.09.151-.044.227-.098.227-.163a.614.614 0 0 0-.035-.2l-.521-1.41h-2.208a11.2 11.2 0 0 0-.342.966 3.377 3.377 0 0 0-.081.31 1.118 1.118 0 0 0-.022.196c0 .118.093.21.28.276.186.065.396.103.629.115v.317h-2.372v-.317a1.86 1.86 0 0 0 .289-.052.925.925 0 0 0 .283-.112c.118-.08.211-.163.276-.251.065-.088.129-.208.191-.362.316-.789.664-1.676 1.046-2.661l1.02-2.63h.356l2.098 5.429c.044.115.094.209.15.28.056.071.135.14.236.207a.911.911 0 0 0 .265.105c.11.028.201.043.275.047v.317zm-2.529-2.57l-.955-2.446-.941 2.445h1.896zm8.634 2.57h-2.653v-.318l.306-.03c.133-.016.227-.035.279-.06a.371.371 0 0 0 .192-.168.604.604 0 0 0 .059-.283v-1.994h-.415c-.339 0-.601.07-.785.21-.187.139-.384.438-.591.898a24.294 24.294 0 0 0-.702 1.744h-1.731v-.317c.069-.01.144-.019.229-.026.085-.01.168-.021.251-.037a.6.6 0 0 0 .292-.133c.075-.066.155-.192.244-.378.077-.168.167-.362.271-.582.103-.218.183-.39.239-.514.134-.292.289-.516.468-.67.179-.154.404-.276.677-.367v-.062a3.296 3.296 0 0 1-.591-.185 1.847 1.847 0 0 1-.489-.304 1.405 1.405 0 0 1-.334-.459 1.524 1.524 0 0 1-.121-.628c0-.265.054-.501.163-.706.109-.202.258-.375.444-.513.177-.133.387-.236.63-.307.242-.071.493-.106.756-.106h2.912v.318a2.17 2.17 0 0 0-.323.044 2.99 2.99 0 0 0-.292.07.32.32 0 0 0-.204.183.723.723 0 0 0-.053.275v4.546a.72.72 0 0 0 .048.273c.033.078.101.137.209.178.053.021.145.041.279.06.131.016.245.026.336.03v.317zm-1.817-3.234v-2.698h-.763c-.383 0-.689.123-.914.37-.226.246-.339.566-.339.96 0 .448.13.788.39 1.02.259.231.604.348 1.033.348h.593zm10.039-1.299h-.337a2.852 2.852 0 0 0-.345-.81 2.122 2.122 0 0 0-.29-.381.592.592 0 0 0-.342-.177 4.12 4.12 0 0 0-.371-.03 8.71 8.71 0 0 0-.418-.01h-.904v5.043c0 .1.024.188.071.263a.518.518 0 0 0 .212.183c.059.028.165.055.32.085a2.7 2.7 0 0 0 .378.049v.317h-2.825v-.317c.09-.007.208-.016.356-.03a1.05 1.05 0 0 0 .289-.05.377.377 0 0 0 .194-.17.563.563 0 0 0 .06-.273v-4.538a.66.66 0 0 0-.048-.259c-.033-.076-.101-.136-.206-.185a1.576 1.576 0 0 0-.322-.101 2.573 2.573 0 0 0-.323-.053v-.318h4.851v1.762zm6.764 4.532h-2.616v-.317c.231-.016.422-.044.575-.09.151-.044.227-.098.227-.163a.6.6 0 0 0-.007-.097.464.464 0 0 0-.028-.103l-.52-1.41h-2.209c-.083.208-.15.388-.203.541-.051.154-.098.295-.139.425a3.318 3.318 0 0 0-.08.31 1.043 1.043 0 0 0-.023.196c0 .118.094.21.28.276.186.065.397.103.63.115v.317h-2.372v-.317a1.88 1.88 0 0 0 .289-.052.925.925 0 0 0 .283-.112c.118-.08.21-.163.275-.251.065-.088.129-.208.191-.362.316-.789.665-1.676 1.046-2.661l1.02-2.63h.356l2.098 5.429c.044.115.094.209.15.28.056.071.135.14.236.207a.911.911 0 0 0 .265.105c.111.028.202.043.276.047v.317zm-2.53-2.57l-.955-2.445-.94 2.445h1.895zm7.234-.445c.181.124.331.28.446.466.115.186.173.429.173.724 0 .583-.253 1.058-.757 1.427-.506.368-1.158.553-1.958.553-.366 0-.687-.044-.965-.13a2.392 2.392 0 0 1-.695-.335 1.495 1.495 0 0 1-.429-.481 1.147 1.147 0 0 1-.146-.56c0-.165.043-.31.133-.438a.443.443 0 0 1 .387-.19c.193 0 .336.046.429.14a.47.47 0 0 1 .14.345c0 .1-.021.23-.062.392-.04.162-.071.274-.089.336a1.262 1.262 0 0 0 .403.323c.103.059.231.11.383.153a2.135 2.135 0 0 0 1.132-.027c.202-.06.374-.153.518-.278.15-.13.268-.292.356-.485a1.78 1.78 0 0 0 .13-.721c0-.151-.02-.306-.061-.463a.972.972 0 0 0-.206-.41 1.095 1.095 0 0 0-.418-.294c-.175-.074-.401-.11-.675-.11h-.639v-.473h.471c.459 0 .789-.117.99-.351.202-.233.302-.578.302-1.037 0-.158-.02-.303-.058-.436a.945.945 0 0 0-.182-.345.896.896 0 0 0-.334-.24 1.29 1.29 0 0 0-.509-.089c-.28 0-.521.055-.717.165-.199.11-.37.265-.51.463a2.26 2.26 0 0 0-.324.648 8.29 8.29 0 0 0-.209.723h-.364l.037-2.244h.354l.186.301c.186-.115.427-.216.721-.306a3.19 3.19 0 0 1 .919-.131c.334 0 .649.042.944.127.295.083.544.229.745.433.148.156.247.318.297.484.05.165.075.305.075.417 0 .133-.024.278-.071.436a1.185 1.185 0 0 1-.253.443c-.118.14-.273.268-.469.385a2.603 2.603 0 0 1-.723.283v.056c.174.006.366.038.578.094.21.056.401.142.574.257zm7.127 1.163l-.119 1.852h-5.222v-.317c.09-.007.208-.019.356-.038.148-.02.245-.04.289-.06a.402.402 0 0 0 .198-.173.564.564 0 0 0 .056-.27v-4.52a.66.66 0 0 0-.048-.259c-.033-.076-.101-.136-.206-.185a1.576 1.576 0 0 0-.322-.101 2.573 2.573 0 0 0-.323-.053v-.318h4.869v1.517h-.336c-.059-.224-.187-.462-.383-.715-.196-.251-.382-.389-.559-.413a4.994 4.994 0 0 0-.327-.026 9.131 9.131 0 0 0-.434-.009h-.986v2.498h.707c.226 0 .392-.021.497-.064a.7.7 0 0 0 .275-.215c.065-.086.12-.2.165-.343a2.14 2.14 0 0 0 .091-.404h.336v2.461h-.336a2.014 2.014 0 0 0-.095-.45 1.17 1.17 0 0 0-.161-.343.639.639 0 0 0-.312-.226 1.647 1.647 0 0 0-.46-.053h-.707v1.888c0 .19.014.338.039.447a.423.423 0 0 0 .156.248.669.669 0 0 0 .314.109c.133.017.322.024.568.024h.384c.159 0 .294-.006.403-.018a2.52 2.52 0 0 0 .348-.064.538.538 0 0 0 .254-.127c.136-.14.279-.356.427-.645.15-.287.245-.5.286-.635h.318zm6.154-2.734h-.309a2.19 2.19 0 0 0-.143-.38 3.404 3.404 0 0 0-.234-.415 2.164 2.164 0 0 0-.29-.357.594.594 0 0 0-.304-.176 4.937 4.937 0 0 0-.347-.026 8.7 8.7 0 0 0-.386-.009h-.258V65.6a.59.59 0 0 0 .063.267.406.406 0 0 0 .216.188c.053.022.165.049.335.085.169.035.301.055.395.058v.317h-2.97v-.317l.38-.035c.169-.018.287-.041.352-.067a.44.44 0 0 0 .217-.166.548.548 0 0 0 .068-.291v-5.073h-.258c-.092 0-.205.002-.342.006a5.067 5.067 0 0 0-.39.03c-.097.011-.198.07-.304.175a2.397 2.397 0 0 0-.291.357 3.16 3.16 0 0 0-.377.795h-.309V60.22h5.486v1.708zM223 66.515h-2.616v-.318c.232-.016.422-.044.575-.09.152-.044.227-.098.227-.163a.6.6 0 0 0-.007-.097.415.415 0 0 0-.028-.103l-.52-1.41h-2.209c-.083.208-.15.388-.203.541-.051.154-.098.295-.139.425a3.318 3.318 0 0 0-.08.31 1.135 1.135 0 0 0-.023.196c0 .118.094.21.28.276.186.065.397.103.63.115v.317h-2.372v-.317a1.88 1.88 0 0 0 .289-.052.925.925 0 0 0 .283-.112c.118-.08.21-.163.275-.251.066-.088.129-.208.191-.362.317-.789.665-1.676 1.046-2.661l1.021-2.63h.355l2.098 5.429c.044.115.094.209.15.28.056.071.135.14.236.207a.911.911 0 0 0 .265.105c.111.028.202.043.276.047v.317zm-2.53-2.57l-.955-2.446-.94 2.445h1.895z"/></symbol><symbol viewBox="0 0 25 26" id="ok" xmlns="http://www.w3.org/2000/svg"><path d="M12.5 2.279a5.366 5.366 0 0 0-5.36 5.36A5.366 5.366 0 0 0 12.5 13a5.366 5.366 0 0 0 5.36-5.36 5.366 5.366 0 0 0-5.36-5.36zm0 8.04a2.683 2.683 0 0 1-2.68-2.68 2.683 2.683 0 0 1 2.68-2.68 2.683 2.683 0 0 1 2.68 2.68 2.683 2.683 0 0 1-2.68 2.68z"/><path d="M19.608 12.851a1.339 1.339 0 0 0-1.895 0c-2.873 2.873-7.55 2.873-10.425 0a1.34 1.34 0 1 0-1.895 1.896 9.99 9.99 0 0 0 5.96 2.866l-3.821 3.82a1.339 1.339 0 0 0 0 1.895 1.339 1.339 0 0 0 1.895 0l3.073-3.073 3.073 3.073a1.336 1.336 0 0 0 1.895 0 1.339 1.339 0 0 0 0-1.895l-3.82-3.82a9.99 9.99 0 0 0 5.959-2.866 1.341 1.341 0 0 0 .001-1.896z"/></symbol><symbol viewBox="0 0 25 16" id="vk" xmlns="http://www.w3.org/2000/svg"><path d="M20.745 9.07c-.404-.51-.289-.737 0-1.193.005-.005 3.341-4.616 3.685-6.18h.002c.171-.57 0-.989-.826-.989h-2.733c-.696 0-1.017.36-1.189.762 0 0-1.391 3.331-3.36 5.49-.636.624-.93.824-1.276.824-.17 0-.437-.2-.437-.77V1.697c0-.684-.194-.989-.77-.989H9.543c-.437 0-.696.319-.696.616 0 .648.984.797 1.086 2.62v3.955c0 .867-.157 1.026-.506 1.026-.93 0-3.184-3.345-4.52-7.173-.27-.743-.534-1.043-1.235-1.043H.937C.157.71 0 1.07 0 1.471c0 .71.93 4.242 4.32 8.91 2.261 3.184 5.445 4.91 8.34 4.91 1.741 0 1.954-.383 1.954-1.042 0-3.044-.158-3.331.714-3.331.404 0 1.1.2 2.725 1.736 1.857 1.822 2.163 2.638 3.202 2.638h2.733c.78 0 1.175-.384.947-1.14-.52-1.59-4.032-4.862-4.19-5.081z"/></symbol></svg>