<svg width="394" height="1004" viewBox="0 0 394 1004" fill="none" xmlns="http://www.w3.org/2000/svg">
<path d="M60.9468 978.228H333.053V1003.47H60.9468V978.228Z" fill="#34558B"/>
<path d="M144.315 989.389H145.455C145.974 989.389 146.351 989.464 146.585 989.612C146.82 989.759 146.938 989.994 146.938 990.316C146.938 990.535 146.886 990.715 146.783 990.855C146.681 990.995 146.545 991.08 146.374 991.108V991.133C146.606 991.185 146.773 991.282 146.875 991.424C146.979 991.565 147.031 991.754 147.031 991.99C147.031 992.324 146.91 992.584 146.667 992.771C146.427 992.958 146.1 993.052 145.685 993.052H144.315V989.389ZM145.092 990.84H145.543C145.753 990.84 145.905 990.807 145.999 990.742C146.094 990.677 146.141 990.569 146.141 990.419C146.141 990.279 146.09 990.179 145.986 990.118C145.884 990.057 145.722 990.026 145.5 990.026H145.092V990.84ZM145.092 991.456V992.41H145.598C145.812 992.41 145.969 992.37 146.071 992.288C146.173 992.206 146.224 992.081 146.224 991.912C146.224 991.608 146.007 991.456 145.573 991.456H145.092ZM149.871 993.052H147.762V989.389H149.871V990.026H148.539V990.83H149.779V991.466H148.539V992.41H149.871V993.052ZM151.414 991.113H151.67C151.909 991.113 152.087 991.066 152.206 990.973C152.324 990.877 152.384 990.74 152.384 990.559C152.384 990.377 152.334 990.243 152.233 990.156C152.135 990.069 151.98 990.026 151.768 990.026H151.414V991.113ZM153.168 990.532C153.168 990.926 153.044 991.227 152.797 991.436C152.552 991.645 152.202 991.749 151.747 991.749H151.414V993.052H150.638V989.389H151.808C152.252 989.389 152.589 989.485 152.82 989.678C153.052 989.868 153.168 990.153 153.168 990.532ZM155.415 989.983C155.123 989.983 154.896 990.093 154.736 990.314C154.576 990.533 154.495 990.838 154.495 991.231C154.495 992.047 154.802 992.456 155.415 992.456C155.672 992.456 155.983 992.391 156.349 992.263V992.914C156.049 993.039 155.713 993.102 155.342 993.102C154.809 993.102 154.402 992.941 154.12 992.618C153.837 992.294 153.696 991.83 153.696 991.226C153.696 990.845 153.766 990.512 153.904 990.226C154.043 989.939 154.242 989.719 154.5 989.567C154.761 989.414 155.066 989.337 155.415 989.337C155.77 989.337 156.128 989.423 156.487 989.595L156.236 990.226C156.099 990.161 155.962 990.104 155.823 990.056C155.684 990.007 155.548 989.983 155.415 989.983ZM157.131 989.389H157.83V991.158L157.82 991.631L157.795 992.17H157.81L159.5 989.389H160.43V993.052H159.738V991.293C159.738 991.058 159.753 990.709 159.783 990.246H159.763L158.065 993.052H157.131V989.389ZM162.587 991.646L161.73 993.052H160.868L161.91 991.441C161.703 991.358 161.544 991.229 161.434 991.055C161.324 990.88 161.269 990.674 161.269 990.437C161.269 990.101 161.388 989.843 161.625 989.663C161.863 989.48 162.206 989.389 162.652 989.389H163.844V993.052H163.068V991.646H162.587ZM163.068 990.026H162.684C162.484 990.026 162.329 990.062 162.218 990.133C162.108 990.205 162.053 990.325 162.053 990.492C162.053 990.654 162.106 990.781 162.213 990.875C162.32 990.968 162.484 991.015 162.704 991.015H163.068V990.026ZM165.663 992.405H165.946C166.188 991.921 166.379 991.438 166.519 990.955C166.66 990.471 166.764 989.949 166.833 989.389H168.967V992.405H169.455V994.119H168.706V993.052H166.412V994.119H165.663V992.405ZM167.449 990.036C167.395 990.418 167.306 990.823 167.181 991.251C167.057 991.678 166.918 992.063 166.762 992.405H168.193V990.036H167.449ZM172.92 993.052H172.146V990.036H171.249L171.209 990.371C171.105 991.225 171.013 991.824 170.933 992.17C170.855 992.514 170.739 992.756 170.587 992.896C170.436 993.037 170.23 993.105 169.971 993.102C169.831 993.102 169.707 993.083 169.601 993.047V992.41C169.697 992.444 169.788 992.461 169.874 992.461C169.962 992.461 170.032 992.421 170.084 992.34C170.136 992.259 170.184 992.108 170.229 991.889C170.276 991.669 170.337 991.309 170.412 990.81C170.489 990.309 170.554 989.835 170.608 989.389H172.92V993.052ZM175.076 991.646L174.22 993.052H173.358L174.4 991.441C174.193 991.358 174.034 991.229 173.924 991.055C173.814 990.88 173.759 990.674 173.759 990.437C173.759 990.101 173.877 989.843 174.114 989.663C174.353 989.48 174.696 989.389 175.142 989.389H176.334V993.052H175.557V991.646H175.076ZM175.557 990.026H175.174C174.974 990.026 174.818 990.062 174.708 990.133C174.598 990.205 174.543 990.325 174.543 990.492C174.543 990.654 174.596 990.781 174.703 990.875C174.81 990.968 174.974 991.015 175.194 991.015H175.557V990.026ZM179.365 991.113H179.62C179.859 991.113 180.038 991.066 180.157 990.973C180.275 990.877 180.334 990.74 180.334 990.559C180.334 990.377 180.284 990.243 180.184 990.156C180.086 990.069 179.93 990.026 179.718 990.026H179.365V991.113ZM181.118 990.532C181.118 990.926 180.995 991.227 180.748 991.436C180.502 991.645 180.152 991.749 179.698 991.749H179.365V993.052H178.588V989.389H179.758C180.202 989.389 180.54 989.485 180.77 989.678C181.002 989.868 181.118 990.153 181.118 990.532ZM183.919 993.052H181.81V989.389H183.919V990.026H182.586V990.83H183.826V991.466H182.586V992.41H183.919V993.052ZM187.671 993.052H186.79L185.462 991.196V993.052H184.686V989.389H185.462V991.163L186.775 989.389H187.601L186.266 991.148L187.671 993.052ZM191.031 993.052H190.257V990.036H189.36L189.32 990.371C189.216 991.225 189.124 991.824 189.044 992.17C188.966 992.514 188.85 992.756 188.699 992.896C188.547 993.037 188.341 993.105 188.082 993.102C187.942 993.102 187.818 993.083 187.712 993.047V992.41C187.808 992.444 187.899 992.461 187.985 992.461C188.073 992.461 188.143 992.421 188.195 992.34C188.247 992.259 188.295 992.108 188.34 991.889C188.387 991.669 188.448 991.309 188.523 990.81C188.6 990.309 188.665 989.835 188.719 989.389H191.031V993.052ZM194.197 993.052L193.931 992.18H192.596L192.331 993.052H191.494L192.787 989.374H193.736L195.034 993.052H194.197ZM193.746 991.529C193.501 990.739 193.362 990.292 193.33 990.189C193.3 990.085 193.278 990.003 193.265 989.943C193.21 990.157 193.052 990.685 192.792 991.529H193.746ZM197.048 993.052L196.166 990.179H196.143C196.175 990.763 196.191 991.153 196.191 991.348V993.052H195.497V989.389H196.554L197.421 992.19H197.436L198.355 989.389H199.412V993.052H198.688V991.318C198.688 991.236 198.689 991.142 198.691 991.035C198.694 990.928 198.706 990.644 198.726 990.184H198.703L197.759 993.052H197.048ZM202.842 991.907C202.842 992.288 202.715 992.574 202.461 992.766C202.209 992.957 201.835 993.052 201.339 993.052H200.337V989.389H201.113V990.795H201.364C201.833 990.795 202.196 990.892 202.453 991.088C202.712 991.282 202.842 991.555 202.842 991.907ZM201.113 992.415H201.316C201.572 992.415 201.759 992.374 201.877 992.29C201.996 992.205 202.055 992.077 202.055 991.907C202.055 991.737 201.997 991.615 201.882 991.541C201.769 991.468 201.568 991.431 201.281 991.431H201.113V992.415ZM204.062 993.052H203.288V989.389H204.062V993.052ZM209.32 993.052H208.546V991.471H207.095V993.052H206.319V989.389H207.095V990.825H208.546V989.389H209.32V993.052ZM212.488 993.052L212.223 992.18H210.888L210.622 993.052H209.785L211.078 989.374H212.027L213.325 993.052H212.488ZM212.037 991.529C211.792 990.739 211.653 990.292 211.622 990.189C211.592 990.085 211.57 990.003 211.557 989.943C211.501 990.157 211.344 990.685 211.083 991.529H212.037ZM213.353 992.405H213.636C213.878 991.921 214.069 991.438 214.209 990.955C214.35 990.471 214.454 989.949 214.522 989.389H216.657V992.405H217.145V994.119H216.396V993.052H214.102V994.119H213.353V992.405ZM215.139 990.036C215.085 990.418 214.996 990.823 214.871 991.251C214.747 991.678 214.608 992.063 214.452 992.405H215.883V990.036H215.139ZM221.942 993.052H221.168V990.036H219.82V993.052H219.044V989.389H221.942V993.052ZM226.191 991.216C226.191 991.822 226.04 992.288 225.74 992.613C225.439 992.939 225.008 993.102 224.447 993.102C223.886 993.102 223.455 992.939 223.155 992.613C222.854 992.288 222.704 991.82 222.704 991.211C222.704 990.601 222.854 990.136 223.155 989.815C223.457 989.493 223.889 989.332 224.452 989.332C225.015 989.332 225.445 989.494 225.742 989.818C226.041 990.142 226.191 990.608 226.191 991.216ZM223.518 991.216C223.518 991.625 223.595 991.933 223.751 992.14C223.906 992.347 224.138 992.451 224.447 992.451C225.067 992.451 225.376 992.039 225.376 991.216C225.376 990.391 225.068 989.978 224.452 989.978C224.143 989.978 223.91 990.083 223.753 990.291C223.596 990.498 223.518 990.806 223.518 991.216ZM226.514 992.405H226.797C227.039 991.921 227.23 991.438 227.37 990.955C227.511 990.471 227.615 989.949 227.684 989.389H229.818V992.405H230.306V994.119H229.557V993.052H227.263V994.119H226.514V992.405ZM228.3 990.036C228.246 990.418 228.157 990.823 228.032 991.251C227.908 991.678 227.769 992.063 227.613 992.405H229.044V990.036H228.3ZM230.872 989.389H232.012C232.532 989.389 232.908 989.464 233.142 989.612C233.377 989.759 233.495 989.994 233.495 990.316C233.495 990.535 233.443 990.715 233.34 990.855C233.238 990.995 233.102 991.08 232.932 991.108V991.133C233.164 991.185 233.331 991.282 233.433 991.424C233.536 991.565 233.588 991.754 233.588 991.99C233.588 992.324 233.467 992.584 233.225 992.771C232.984 992.958 232.657 993.052 232.243 993.052H230.872V989.389ZM231.649 990.84H232.1C232.31 990.84 232.462 990.807 232.556 990.742C232.651 990.677 232.699 990.569 232.699 990.419C232.699 990.279 232.647 990.179 232.543 990.118C232.441 990.057 232.279 990.026 232.057 990.026H231.649V990.84ZM231.649 991.456V992.41H232.155C232.369 992.41 232.527 992.37 232.628 992.288C232.73 992.206 232.781 992.081 232.781 991.912C232.781 991.608 232.564 991.456 232.13 991.456H231.649ZM236.561 993.052L236.296 992.18H234.961L234.695 993.052H233.858L235.151 989.374H236.1L237.398 993.052H236.561ZM236.11 991.529C235.865 990.739 235.726 990.292 235.695 990.189C235.664 990.085 235.643 990.003 235.629 989.943C235.574 990.157 235.416 990.685 235.156 991.529H236.11ZM240.76 993.052H239.986V990.036H239.089L239.049 990.371C238.945 991.225 238.853 991.824 238.773 992.17C238.695 992.514 238.579 992.756 238.427 992.896C238.275 993.037 238.07 993.105 237.811 993.102C237.671 993.102 237.547 993.083 237.441 993.047V992.41C237.537 992.444 237.628 992.461 237.714 992.461C237.802 992.461 237.872 992.421 237.924 992.34C237.976 992.259 238.024 992.108 238.069 991.889C238.116 991.669 238.177 991.309 238.252 990.81C238.329 990.309 238.394 989.835 238.448 989.389H240.76V993.052ZM245.008 991.216C245.008 991.822 244.858 992.288 244.557 992.613C244.257 992.939 243.826 993.102 243.265 993.102C242.703 993.102 242.273 992.939 241.972 992.613C241.671 992.288 241.521 991.82 241.521 991.211C241.521 990.601 241.671 990.136 241.972 989.815C242.274 989.493 242.707 989.332 243.27 989.332C243.832 989.332 244.262 989.494 244.56 989.818C244.859 990.142 245.008 990.608 245.008 991.216ZM242.335 991.216C242.335 991.625 242.413 991.933 242.568 992.14C242.724 992.347 242.956 992.451 243.265 992.451C243.884 992.451 244.194 992.039 244.194 991.216C244.194 990.391 243.886 989.978 243.27 989.978C242.961 989.978 242.728 990.083 242.571 990.291C242.414 990.498 242.335 990.806 242.335 991.216ZM247.318 993.052L246.436 990.179H246.413C246.445 990.763 246.461 991.153 246.461 991.348V993.052H245.767V989.389H246.824L247.691 992.19H247.706L248.625 989.389H249.682V993.052H248.958V991.318C248.958 991.236 248.959 991.142 248.961 991.035C248.964 990.928 248.976 990.644 248.996 990.184H248.973L248.029 993.052H247.318Z" fill="white"/>
<rect x="148.16" y="443.66" width="115.943" height="19.9052" fill="#34558B"/>
<path d="M151.34 452.154H152.48C152.999 452.154 153.376 452.229 153.61 452.377C153.845 452.524 153.963 452.759 153.963 453.081C153.963 453.3 153.911 453.479 153.808 453.62C153.706 453.76 153.57 453.844 153.399 453.873V453.898C153.632 453.95 153.799 454.046 153.9 454.188C154.004 454.33 154.056 454.519 154.056 454.755C154.056 455.089 153.935 455.349 153.693 455.536C153.452 455.723 153.125 455.817 152.711 455.817H151.34V452.154ZM152.117 453.605H152.568C152.778 453.605 152.93 453.572 153.024 453.507C153.119 453.442 153.166 453.334 153.166 453.184C153.166 453.044 153.115 452.943 153.011 452.883C152.909 452.822 152.747 452.791 152.525 452.791H152.117V453.605ZM152.117 454.221V455.175H152.623C152.837 455.175 152.994 455.134 153.096 455.053C153.198 454.971 153.249 454.846 153.249 454.677C153.249 454.373 153.032 454.221 152.598 454.221H152.117ZM156.896 455.817H154.787V452.154H156.896V452.791H155.564V453.595H156.804V454.231H155.564V455.175H156.896V455.817ZM158.439 453.878H158.695C158.934 453.878 159.112 453.831 159.231 453.738C159.35 453.642 159.409 453.505 159.409 453.324C159.409 453.142 159.359 453.008 159.259 452.921C159.16 452.834 159.005 452.791 158.793 452.791H158.439V453.878ZM160.193 453.297C160.193 453.691 160.069 453.992 159.822 454.201C159.577 454.41 159.227 454.514 158.773 454.514H158.439V455.817H157.663V452.154H158.833C159.277 452.154 159.614 452.25 159.845 452.442C160.077 452.633 160.193 452.918 160.193 453.297ZM162.44 452.748C162.148 452.748 161.921 452.858 161.761 453.079C161.601 453.297 161.521 453.603 161.521 453.996C161.521 454.812 161.827 455.22 162.44 455.22C162.697 455.22 163.009 455.156 163.374 455.028V455.679C163.074 455.804 162.738 455.867 162.367 455.867C161.835 455.867 161.427 455.706 161.145 455.383C160.863 455.059 160.722 454.595 160.722 453.991C160.722 453.61 160.791 453.277 160.929 452.991C161.068 452.704 161.267 452.484 161.526 452.332C161.786 452.179 162.091 452.102 162.44 452.102C162.796 452.102 163.153 452.188 163.512 452.36L163.262 452.991C163.125 452.926 162.987 452.869 162.848 452.821C162.71 452.772 162.574 452.748 162.44 452.748ZM164.156 452.154H164.855V453.923L164.845 454.396L164.82 454.935H164.835L166.526 452.154H167.455V455.817H166.764V454.058C166.764 453.823 166.779 453.474 166.809 453.011H166.789L165.09 455.817H164.156V452.154ZM169.612 454.411L168.755 455.817H167.893L168.935 454.206C168.728 454.122 168.57 453.994 168.459 453.82C168.349 453.645 168.294 453.439 168.294 453.201C168.294 452.866 168.413 452.608 168.65 452.427C168.889 452.245 169.231 452.154 169.677 452.154H170.869V455.817H170.093V454.411H169.612ZM170.093 452.791H169.709C169.509 452.791 169.354 452.827 169.243 452.898C169.133 452.97 169.078 453.09 169.078 453.257C169.078 453.419 169.132 453.546 169.238 453.64C169.345 453.733 169.509 453.78 169.729 453.78H170.093V452.791ZM172.688 455.17H172.971C173.213 454.686 173.404 454.203 173.545 453.72C173.685 453.236 173.789 452.714 173.858 452.154H175.992V455.17H176.48V456.884H175.731V455.817H173.437V456.884H172.688V455.17ZM174.474 452.801C174.42 453.183 174.331 453.588 174.206 454.016C174.082 454.443 173.943 454.828 173.788 455.17H175.218V452.801H174.474ZM179.945 455.817H179.171V452.801H178.274L178.234 453.136C178.13 453.99 178.038 454.589 177.958 454.935C177.88 455.279 177.765 455.521 177.613 455.661C177.461 455.802 177.255 455.87 176.996 455.867C176.856 455.867 176.733 455.848 176.626 455.812V455.175C176.723 455.209 176.814 455.225 176.899 455.225C176.987 455.225 177.057 455.185 177.109 455.105C177.161 455.023 177.209 454.873 177.254 454.654C177.301 454.434 177.362 454.074 177.437 453.575C177.514 453.074 177.579 452.6 177.633 452.154H179.945V455.817ZM182.102 454.411L181.245 455.817H180.383L181.425 454.206C181.218 454.122 181.059 453.994 180.949 453.82C180.839 453.645 180.784 453.439 180.784 453.201C180.784 452.866 180.903 452.608 181.14 452.427C181.378 452.245 181.721 452.154 182.167 452.154H183.359V455.817H182.583V454.411H182.102ZM182.583 452.791H182.199C181.999 452.791 181.844 452.827 181.733 452.898C181.623 452.97 181.568 453.09 181.568 453.257C181.568 453.419 181.621 453.546 181.728 453.64C181.835 453.733 181.999 453.78 182.219 453.78H182.583V452.791ZM185.614 452.154H186.753C187.273 452.154 187.649 452.229 187.883 452.377C188.119 452.524 188.236 452.759 188.236 453.081C188.236 453.3 188.184 453.479 188.081 453.62C187.979 453.76 187.843 453.844 187.673 453.873V453.898C187.905 453.95 188.072 454.046 188.174 454.188C188.277 454.33 188.329 454.519 188.329 454.755C188.329 455.089 188.208 455.349 187.966 455.536C187.725 455.723 187.398 455.817 186.984 455.817H185.614V452.154ZM186.39 453.605H186.841C187.051 453.605 187.203 453.572 187.297 453.507C187.392 453.442 187.44 453.334 187.44 453.184C187.44 453.044 187.388 452.943 187.284 452.883C187.183 452.822 187.021 452.791 186.798 452.791H186.39V453.605ZM186.39 454.221V455.175H186.896C187.11 455.175 187.268 455.134 187.37 455.053C187.471 454.971 187.522 454.846 187.522 454.677C187.522 454.373 187.305 454.221 186.871 454.221H186.39ZM192.061 455.817H191.287V454.236H189.837V455.817H189.06V452.154H189.837V453.59H191.287V452.154H192.061V455.817ZM195.876 452.154L194.744 454.745C194.602 455.07 194.469 455.304 194.343 455.446C194.22 455.588 194.073 455.694 193.903 455.764C193.732 455.833 193.525 455.867 193.281 455.867C193.073 455.867 192.878 455.842 192.698 455.792V455.125C192.845 455.185 193.027 455.215 193.246 455.215C193.385 455.215 193.497 455.184 193.582 455.12C193.667 455.055 193.738 454.943 193.795 454.785L192.527 452.154H193.349L194.251 454.196H194.276L194.321 454.071L195.077 452.154H195.876ZM197.753 455.817H196.976V452.801H195.982V452.154H198.747V452.801H197.753V455.817ZM200.087 453.878H200.343C200.582 453.878 200.76 453.831 200.879 453.738C200.997 453.642 201.057 453.505 201.057 453.324C201.057 453.142 201.007 453.008 200.906 452.921C200.808 452.834 200.653 452.791 200.441 452.791H200.087V453.878ZM201.841 453.297C201.841 453.691 201.717 453.992 201.47 454.201C201.225 454.41 200.875 454.514 200.421 454.514H200.087V455.817H199.311V452.154H200.481C200.925 452.154 201.262 452.25 201.493 452.442C201.725 452.633 201.841 452.918 201.841 453.297ZM202.532 452.154H203.231V453.923L203.221 454.396L203.196 454.935H203.211L204.902 452.154H205.831V455.817H205.14V454.058C205.14 453.823 205.155 453.474 205.185 453.011H205.165L203.467 455.817H202.532V452.154ZM207.532 453.56H207.838C208.315 453.56 208.684 453.657 208.945 453.85C209.205 454.044 209.336 454.318 209.336 454.672C209.336 455.435 208.831 455.817 207.823 455.817H206.756V452.154H209.07V452.796H207.532V453.56ZM207.532 455.18H207.793C208.055 455.18 208.247 455.139 208.369 455.055C208.491 454.97 208.552 454.842 208.552 454.672C208.552 454.503 208.49 454.382 208.366 454.309C208.243 454.234 208.031 454.196 207.73 454.196H207.532V455.18ZM212.93 455.817H212.156V452.801H211.26L211.219 453.136C211.116 453.99 211.024 454.589 210.944 454.935C210.865 455.279 210.75 455.521 210.598 455.661C210.446 455.802 210.241 455.87 209.982 455.867C209.842 455.867 209.718 455.848 209.611 455.812V455.175C209.708 455.209 209.799 455.225 209.884 455.225C209.973 455.225 210.043 455.185 210.095 455.105C210.147 455.023 210.195 454.873 210.24 454.654C210.287 454.434 210.348 454.074 210.423 453.575C210.5 453.074 210.565 452.6 210.618 452.154H212.93V455.817ZM217.179 453.98C217.179 454.587 217.029 455.053 216.728 455.378C216.427 455.704 215.997 455.867 215.435 455.867C214.874 455.867 214.443 455.704 214.143 455.378C213.842 455.053 213.692 454.585 213.692 453.975C213.692 453.366 213.842 452.901 214.143 452.58C214.445 452.258 214.878 452.097 215.44 452.097C216.003 452.097 216.433 452.259 216.73 452.583C217.029 452.907 217.179 453.373 217.179 453.98ZM214.506 453.98C214.506 454.39 214.584 454.698 214.739 454.905C214.894 455.112 215.126 455.215 215.435 455.215C216.055 455.215 216.365 454.804 216.365 453.98C216.365 453.156 216.057 452.743 215.44 452.743C215.131 452.743 214.898 452.847 214.742 453.056C214.585 453.263 214.506 453.571 214.506 453.98ZM220.751 455.817H219.974V454.401C219.717 454.488 219.503 454.547 219.331 454.579C219.16 454.611 218.997 454.627 218.842 454.627C218.493 454.627 218.223 454.543 218.033 454.376C217.844 454.208 217.75 453.971 217.75 453.667V452.154H218.524V453.447C218.524 453.624 218.565 453.758 218.647 453.848C218.729 453.936 218.867 453.98 219.063 453.98C219.2 453.98 219.336 453.967 219.471 453.94C219.608 453.912 219.776 453.864 219.974 453.795V452.154H220.751V455.817ZM224.676 455.817H223.902V454.236H222.452V455.817H221.675V452.154H222.452V453.59H223.902V452.154H224.676V455.817ZM228.927 453.98C228.927 454.587 228.777 455.053 228.476 455.378C228.176 455.704 227.745 455.867 227.184 455.867C226.623 455.867 226.192 455.704 225.891 455.378C225.591 455.053 225.44 454.585 225.44 453.975C225.44 453.366 225.591 452.901 225.891 452.58C226.193 452.258 226.626 452.097 227.189 452.097C227.752 452.097 228.182 452.259 228.479 452.583C228.778 452.907 228.927 453.373 228.927 453.98ZM226.254 453.98C226.254 454.39 226.332 454.698 226.487 454.905C226.643 455.112 226.875 455.215 227.184 455.215C227.803 455.215 228.113 454.804 228.113 453.98C228.113 453.156 227.805 452.743 227.189 452.743C226.88 452.743 226.647 452.847 226.49 453.056C226.333 453.263 226.254 453.571 226.254 453.98ZM229.686 452.154H230.385V453.923L230.375 454.396L230.35 454.935H230.365L232.056 452.154H232.985V455.817H232.294V454.058C232.294 453.823 232.309 453.474 232.339 453.011H232.319L230.621 455.817H229.686V452.154ZM232.549 450.964C232.518 451.277 232.4 451.505 232.196 451.648C231.992 451.79 231.699 451.861 231.314 451.861C230.919 451.861 230.626 451.793 230.435 451.656C230.247 451.519 230.14 451.288 230.117 450.964H230.801C230.813 451.137 230.855 451.258 230.929 451.328C231.004 451.396 231.137 451.43 231.33 451.43C231.498 451.43 231.623 451.393 231.705 451.318C231.789 451.241 231.84 451.123 231.858 450.964H232.549ZM236.019 453.878H236.274C236.513 453.878 236.692 453.831 236.81 453.738C236.929 453.642 236.988 453.505 236.988 453.324C236.988 453.142 236.938 453.008 236.838 452.921C236.739 452.834 236.584 452.791 236.372 452.791H236.019V453.878ZM237.772 453.297C237.772 453.691 237.649 453.992 237.402 454.201C237.156 454.41 236.806 454.514 236.352 454.514H236.019V455.817H235.242V452.154H236.412C236.856 452.154 237.194 452.25 237.424 452.442C237.656 452.633 237.772 452.918 237.772 453.297ZM240.573 455.817H238.464V452.154H240.573V452.791H239.24V453.595H240.48V454.231H239.24V455.175H240.573V455.817ZM244.325 455.817H243.444L242.116 453.96V455.817H241.339V452.154H242.116V453.928L243.429 452.154H244.255L242.92 453.913L244.325 455.817ZM247.685 455.817H246.911V452.801H246.014L245.974 453.136C245.87 453.99 245.778 454.589 245.698 454.935C245.62 455.279 245.504 455.521 245.352 455.661C245.2 455.802 244.995 455.87 244.736 455.867C244.596 455.867 244.472 455.848 244.365 455.812V455.175C244.462 455.209 244.553 455.225 244.638 455.225C244.727 455.225 244.797 455.185 244.849 455.105C244.901 455.023 244.949 454.873 244.994 454.654C245.041 454.434 245.102 454.074 245.177 453.575C245.254 453.074 245.319 452.6 245.372 452.154H247.685V455.817ZM250.851 455.817L250.585 454.945H249.25L248.985 455.817H248.148L249.441 452.139H250.39L251.688 455.817H250.851ZM250.4 454.294C250.154 453.504 250.016 453.057 249.984 452.953C249.954 452.85 249.932 452.768 249.919 452.708C249.864 452.922 249.706 453.45 249.446 454.294H250.4ZM253.702 455.817L252.82 452.943H252.797C252.829 453.528 252.845 453.918 252.845 454.113V455.817H252.151V452.154H253.208L254.075 454.955H254.09L255.009 452.154H256.066V455.817H255.342V454.083C255.342 454.001 255.343 453.907 255.345 453.8C255.348 453.693 255.36 453.409 255.38 452.948H255.357L254.413 455.817H253.702ZM259.496 454.672C259.496 455.053 259.369 455.339 259.115 455.531C258.863 455.721 258.489 455.817 257.993 455.817H256.991V452.154H257.767V453.56H258.018C258.487 453.56 258.85 453.657 259.107 453.853C259.366 454.046 259.496 454.32 259.496 454.672ZM257.767 455.18H257.97C258.226 455.18 258.413 455.139 258.531 455.055C258.65 454.97 258.709 454.842 258.709 454.672C258.709 454.502 258.651 454.38 258.536 454.306C258.423 454.233 258.222 454.196 257.935 454.196H257.767V455.18ZM260.715 455.817H259.941V452.154H260.715V455.817Z" fill="white"/>
<rect x="267.797" y="388.87" width="65.2563" height="43.5042" fill="#34558B"/>
<path d="M284.416 405.161H285.555C286.075 405.161 286.451 405.236 286.685 405.384C286.921 405.531 287.038 405.766 287.038 406.088C287.038 406.307 286.987 406.487 286.883 406.627C286.781 406.767 286.645 406.851 286.475 406.88V406.905C286.707 406.957 286.874 407.054 286.976 407.195C287.079 407.337 287.131 407.526 287.131 407.762C287.131 408.096 287.01 408.356 286.768 408.543C286.527 408.73 286.2 408.824 285.786 408.824H284.416V405.161ZM285.192 406.612H285.643C285.853 406.612 286.005 406.579 286.099 406.514C286.194 406.449 286.242 406.341 286.242 406.191C286.242 406.051 286.19 405.951 286.086 405.89C285.985 405.829 285.823 405.798 285.6 405.798H285.192V406.612ZM285.192 407.228V408.182H285.698C285.912 408.182 286.07 408.142 286.172 408.06C286.273 407.978 286.324 407.853 286.324 407.684C286.324 407.38 286.107 407.228 285.673 407.228H285.192ZM289.972 408.824H287.862V405.161H289.972V405.798H288.639V406.602H289.879V407.238H288.639V408.182H289.972V408.824ZM291.515 406.885H291.77C292.009 406.885 292.188 406.838 292.306 406.745C292.425 406.649 292.484 406.512 292.484 406.331C292.484 406.149 292.434 406.015 292.334 405.928C292.235 405.841 292.08 405.798 291.868 405.798H291.515V406.885ZM293.268 406.304C293.268 406.698 293.145 406.999 292.897 407.208C292.652 407.417 292.302 407.521 291.848 407.521H291.515V408.824H290.738V405.161H291.908C292.352 405.161 292.69 405.257 292.92 405.45C293.152 405.64 293.268 405.925 293.268 406.304ZM295.515 405.755C295.223 405.755 294.997 405.865 294.836 406.086C294.676 406.305 294.596 406.61 294.596 407.003C294.596 407.819 294.902 408.228 295.515 408.228C295.772 408.228 296.084 408.163 296.45 408.035V408.686C296.149 408.811 295.813 408.874 295.443 408.874C294.91 408.874 294.502 408.713 294.22 408.39C293.938 408.066 293.797 407.602 293.797 406.998C293.797 406.617 293.866 406.284 294.005 405.998C294.143 405.711 294.342 405.491 294.601 405.339C294.861 405.186 295.166 405.109 295.515 405.109C295.871 405.109 296.228 405.195 296.587 405.367L296.337 405.998C296.2 405.933 296.062 405.876 295.924 405.828C295.785 405.779 295.649 405.755 295.515 405.755ZM297.231 405.161H297.93V406.93L297.92 407.403L297.895 407.942H297.91L299.601 405.161H300.53V408.824H299.839V407.065C299.839 406.83 299.854 406.481 299.884 406.018H299.864L298.165 408.824H297.231V405.161ZM302.687 407.418L301.83 408.824H300.969L302.011 407.213C301.804 407.13 301.645 407.001 301.535 406.827C301.424 406.652 301.369 406.446 301.369 406.209C301.369 405.873 301.488 405.615 301.725 405.434C301.964 405.252 302.306 405.161 302.752 405.161H303.944V408.824H303.168V407.418H302.687ZM303.168 405.798H302.785C302.584 405.798 302.429 405.834 302.319 405.905C302.209 405.977 302.153 406.097 302.153 406.264C302.153 406.426 302.207 406.553 302.314 406.647C302.421 406.74 302.584 406.787 302.805 406.787H303.168V405.798ZM305.763 408.177H306.046C306.288 407.693 306.48 407.21 306.62 406.727C306.76 406.243 306.864 405.721 306.933 405.161H309.067V408.177H309.556V409.891H308.807V408.824H306.512V409.891H305.763V408.177ZM307.549 405.808C307.496 406.19 307.406 406.595 307.281 407.023C307.158 407.45 307.018 407.835 306.863 408.177H308.293V405.808H307.549ZM313.02 408.824H312.246V405.808H311.349L311.309 406.143C311.206 406.997 311.114 407.596 311.034 407.942C310.955 408.286 310.84 408.528 310.688 408.668C310.536 408.809 310.331 408.877 310.072 408.874C309.931 408.874 309.808 408.855 309.701 408.819V408.182C309.798 408.216 309.889 408.233 309.974 408.233C310.062 408.233 310.133 408.192 310.184 408.112C310.236 408.03 310.285 407.88 310.33 407.661C310.376 407.441 310.437 407.081 310.513 406.582C310.589 406.081 310.654 405.607 310.708 405.161H313.02V408.824ZM315.177 407.418L314.32 408.824H313.458L314.5 407.213C314.293 407.13 314.135 407.001 314.025 406.827C313.914 406.652 313.859 406.446 313.859 406.209C313.859 405.873 313.978 405.615 314.215 405.434C314.454 405.252 314.796 405.161 315.242 405.161H316.434V408.824H315.658V407.418H315.177ZM315.658 405.798H315.275C315.074 405.798 314.919 405.834 314.809 405.905C314.698 405.977 314.643 406.097 314.643 406.264C314.643 406.426 314.697 406.553 314.804 406.647C314.91 406.74 315.074 406.787 315.295 406.787H315.658V405.798ZM288.171 413.755C287.878 413.755 287.652 413.865 287.492 414.086C287.331 414.305 287.251 414.61 287.251 415.003C287.251 415.819 287.558 416.228 288.171 416.228C288.428 416.228 288.739 416.163 289.105 416.035V416.686C288.804 416.811 288.469 416.874 288.098 416.874C287.565 416.874 287.158 416.713 286.876 416.39C286.593 416.066 286.452 415.602 286.452 414.998C286.452 414.617 286.521 414.284 286.66 413.998C286.799 413.711 286.997 413.491 287.256 413.339C287.517 413.186 287.822 413.109 288.171 413.109C288.526 413.109 288.884 413.195 289.243 413.367L288.992 413.998C288.855 413.933 288.718 413.876 288.579 413.828C288.44 413.779 288.304 413.755 288.171 413.755ZM292.128 416.824L291.863 415.952H290.528L290.262 416.824H289.426L290.718 413.146H291.668L292.965 416.824H292.128ZM291.678 415.301C291.432 414.511 291.293 414.064 291.262 413.961C291.232 413.857 291.21 413.775 291.197 413.715C291.141 413.929 290.984 414.457 290.723 415.301H291.678ZM293.429 413.161H294.127V414.93L294.117 415.403L294.092 415.942H294.107L295.798 413.161H296.728V416.824H296.036V415.065C296.036 414.83 296.051 414.481 296.081 414.018H296.061L294.363 416.824H293.429V413.161ZM296.292 411.972C296.26 412.284 296.142 412.512 295.939 412.655C295.735 412.797 295.441 412.868 295.057 412.868C294.661 412.868 294.368 412.8 294.178 412.663C293.989 412.526 293.883 412.296 293.859 411.972H294.543C294.555 412.144 294.598 412.265 294.671 412.335C294.746 412.403 294.88 412.438 295.072 412.438C295.24 412.438 295.366 412.4 295.448 412.325C295.531 412.248 295.582 412.13 295.6 411.972H296.292ZM297.216 416.177H297.499C297.741 415.693 297.933 415.21 298.073 414.727C298.213 414.243 298.317 413.721 298.386 413.161H300.52V416.177H301.009V417.891H300.26V416.824H297.965V417.891H297.216V416.177ZM299.002 413.808C298.949 414.19 298.859 414.595 298.734 415.023C298.611 415.45 298.471 415.835 298.316 416.177H299.746V413.808H299.002ZM302.351 414.567H302.657C303.135 414.567 303.504 414.664 303.764 414.857C304.025 415.051 304.155 415.325 304.155 415.679C304.155 416.442 303.651 416.824 302.642 416.824H301.575V413.161H303.889V413.803H302.351V414.567ZM302.351 416.187H302.612C302.874 416.187 303.066 416.146 303.188 416.062C303.31 415.977 303.371 415.849 303.371 415.679C303.371 415.51 303.309 415.389 303.185 415.316C303.062 415.241 302.85 415.203 302.549 415.203H302.351V416.187ZM307.093 416.824L306.828 415.952H305.493L305.227 416.824H304.39L305.683 413.146H306.632L307.93 416.824H307.093ZM306.642 415.301C306.397 414.511 306.258 414.064 306.227 413.961C306.196 413.857 306.175 413.775 306.161 413.715C306.106 413.929 305.948 414.457 305.688 415.301H306.642ZM309.17 414.885H309.425C309.664 414.885 309.843 414.838 309.961 414.745C310.08 414.649 310.139 414.512 310.139 414.331C310.139 414.149 310.089 414.015 309.989 413.928C309.89 413.841 309.735 413.798 309.523 413.798H309.17V414.885ZM310.923 414.304C310.923 414.698 310.8 414.999 310.553 415.208C310.307 415.417 309.957 415.521 309.503 415.521H309.17V416.824H308.393V413.161H309.563C310.007 413.161 310.345 413.257 310.575 413.45C310.807 413.64 310.923 413.925 310.923 414.304ZM313.857 416.824L313.591 415.952H312.256L311.99 416.824H311.154L312.446 413.146H313.396L314.693 416.824H313.857ZM313.406 415.301C313.16 414.511 313.022 414.064 312.99 413.961C312.96 413.857 312.938 413.775 312.925 413.715C312.87 413.929 312.712 414.457 312.451 415.301H313.406Z" fill="white"/>
<rect x="267.797" y="438.735" width="65.2563" height="43.5042" fill="#34558B"/>
<path d="M284.416 455.027H285.555C286.075 455.027 286.451 455.101 286.685 455.25C286.921 455.397 287.038 455.631 287.038 455.954C287.038 456.173 286.987 456.352 286.883 456.492C286.781 456.633 286.645 456.717 286.475 456.745V456.77C286.707 456.822 286.874 456.919 286.976 457.061C287.079 457.203 287.131 457.392 287.131 457.627C287.131 457.961 287.01 458.222 286.768 458.409C286.527 458.596 286.2 458.689 285.786 458.689H284.416V455.027ZM285.192 456.477H285.643C285.853 456.477 286.005 456.445 286.099 456.38C286.194 456.314 286.242 456.207 286.242 456.056C286.242 455.916 286.19 455.816 286.086 455.756C285.985 455.694 285.823 455.663 285.6 455.663H285.192V456.477ZM285.192 457.094V458.048H285.698C285.912 458.048 286.07 458.007 286.172 457.925C286.273 457.843 286.324 457.718 286.324 457.549C286.324 457.246 286.107 457.094 285.673 457.094H285.192ZM289.972 458.689H287.862V455.027H289.972V455.663H288.639V456.467H289.879V457.104H288.639V458.048H289.972V458.689ZM291.515 456.75H291.77C292.009 456.75 292.188 456.704 292.306 456.61C292.425 456.515 292.484 456.377 292.484 456.197C292.484 456.015 292.434 455.88 292.334 455.793C292.235 455.707 292.08 455.663 291.868 455.663H291.515V456.75ZM293.268 456.169C293.268 456.563 293.145 456.865 292.897 457.073C292.652 457.282 292.302 457.387 291.848 457.387H291.515V458.689H290.738V455.027H291.908C292.352 455.027 292.69 455.123 292.92 455.315C293.152 455.505 293.268 455.79 293.268 456.169ZM295.515 455.621C295.223 455.621 294.997 455.731 294.836 455.951C294.676 456.17 294.596 456.476 294.596 456.868C294.596 457.685 294.902 458.093 295.515 458.093C295.772 458.093 296.084 458.029 296.45 457.9V458.551C296.149 458.677 295.813 458.739 295.443 458.739C294.91 458.739 294.502 458.578 294.22 458.256C293.938 457.932 293.797 457.468 293.797 456.863C293.797 456.482 293.866 456.149 294.005 455.864C294.143 455.576 294.342 455.357 294.601 455.205C294.861 455.051 295.166 454.974 295.515 454.974C295.871 454.974 296.228 455.06 296.587 455.232L296.337 455.864C296.2 455.798 296.062 455.742 295.924 455.693C295.785 455.645 295.649 455.621 295.515 455.621ZM297.231 455.027H297.93V456.795L297.92 457.269L297.895 457.807H297.91L299.601 455.027H300.53V458.689H299.839V456.931C299.839 456.695 299.854 456.346 299.884 455.884H299.864L298.165 458.689H297.231V455.027ZM302.687 457.284L301.83 458.689H300.969L302.011 457.079C301.804 456.995 301.645 456.866 301.535 456.693C301.424 456.517 301.369 456.311 301.369 456.074C301.369 455.738 301.488 455.48 301.725 455.3C301.964 455.118 302.306 455.027 302.752 455.027H303.944V458.689H303.168V457.284H302.687ZM303.168 455.663H302.785C302.584 455.663 302.429 455.699 302.319 455.771C302.209 455.843 302.153 455.962 302.153 456.129C302.153 456.291 302.207 456.419 302.314 456.512C302.421 456.606 302.584 456.653 302.805 456.653H303.168V455.663ZM305.763 458.043H306.046C306.288 457.559 306.48 457.075 306.62 456.593C306.76 456.108 306.864 455.586 306.933 455.027H309.067V458.043H309.556V459.756H308.807V458.689H306.512V459.756H305.763V458.043ZM307.549 455.673C307.496 456.056 307.406 456.461 307.281 456.888C307.158 457.316 307.018 457.701 306.863 458.043H308.293V455.673H307.549ZM313.02 458.689H312.246V455.673H311.349L311.309 456.009C311.206 456.862 311.114 457.462 311.034 457.807C310.955 458.151 310.84 458.394 310.688 458.534C310.536 458.674 310.331 458.743 310.072 458.739C309.931 458.739 309.808 458.721 309.701 458.684V458.048C309.798 458.081 309.889 458.098 309.974 458.098C310.062 458.098 310.133 458.058 310.184 457.978C310.236 457.896 310.285 457.746 310.33 457.527C310.376 457.306 310.437 456.947 310.513 456.447C310.589 455.946 310.654 455.473 310.708 455.027H313.02V458.689ZM315.177 457.284L314.32 458.689H313.458L314.5 457.079C314.293 456.995 314.135 456.866 314.025 456.693C313.914 456.517 313.859 456.311 313.859 456.074C313.859 455.738 313.978 455.48 314.215 455.3C314.454 455.118 314.796 455.027 315.242 455.027H316.434V458.689H315.658V457.284H315.177ZM315.658 455.663H315.275C315.074 455.663 314.919 455.699 314.809 455.771C314.698 455.843 314.643 455.962 314.643 456.129C314.643 456.291 314.697 456.419 314.804 456.512C314.91 456.606 315.074 456.653 315.295 456.653H315.658V455.663ZM288.171 463.621C287.878 463.621 287.652 463.731 287.492 463.951C287.331 464.17 287.251 464.476 287.251 464.868C287.251 465.685 287.558 466.093 288.171 466.093C288.428 466.093 288.739 466.029 289.105 465.9V466.551C288.804 466.677 288.469 466.739 288.098 466.739C287.565 466.739 287.158 466.578 286.876 466.256C286.593 465.932 286.452 465.468 286.452 464.863C286.452 464.482 286.521 464.149 286.66 463.864C286.799 463.576 286.997 463.357 287.256 463.205C287.517 463.051 287.822 462.974 288.171 462.974C288.526 462.974 288.884 463.06 289.243 463.232L288.992 463.864C288.855 463.798 288.718 463.742 288.579 463.693C288.44 463.645 288.304 463.621 288.171 463.621ZM292.128 466.689L291.863 465.817H290.528L290.262 466.689H289.426L290.718 463.012H291.668L292.965 466.689H292.128ZM291.678 465.166C291.432 464.376 291.293 463.93 291.262 463.826C291.232 463.722 291.21 463.641 291.197 463.581C291.141 463.794 290.984 464.323 290.723 465.166H291.678ZM293.429 463.027H294.127V464.795L294.117 465.269L294.092 465.807H294.107L295.798 463.027H296.728V466.689H296.036V464.931C296.036 464.695 296.051 464.346 296.081 463.884H296.061L294.363 466.689H293.429V463.027ZM296.292 461.837C296.26 462.149 296.142 462.377 295.939 462.521C295.735 462.663 295.441 462.734 295.057 462.734C294.661 462.734 294.368 462.665 294.178 462.528C293.989 462.391 293.883 462.161 293.859 461.837H294.543C294.555 462.009 294.598 462.13 294.671 462.2C294.746 462.269 294.88 462.303 295.072 462.303C295.24 462.303 295.366 462.265 295.448 462.19C295.531 462.113 295.582 461.996 295.6 461.837H296.292ZM297.216 466.043H297.499C297.741 465.559 297.933 465.075 298.073 464.593C298.213 464.108 298.317 463.586 298.386 463.027H300.52V466.043H301.009V467.756H300.26V466.689H297.965V467.756H297.216V466.043ZM299.002 463.673C298.949 464.056 298.859 464.461 298.734 464.888C298.611 465.316 298.471 465.701 298.316 466.043H299.746V463.673H299.002ZM302.351 464.432H302.657C303.135 464.432 303.504 464.529 303.764 464.723C304.025 464.917 304.155 465.19 304.155 465.544C304.155 466.308 303.651 466.689 302.642 466.689H301.575V463.027H303.889V463.668H302.351V464.432ZM302.351 466.053H302.612C302.874 466.053 303.066 466.011 303.188 465.928C303.31 465.843 303.371 465.715 303.371 465.544C303.371 465.376 303.309 465.255 303.185 465.181C303.062 465.106 302.85 465.068 302.549 465.068H302.351V466.053ZM307.093 466.689L306.828 465.817H305.493L305.227 466.689H304.39L305.683 463.012H306.632L307.93 466.689H307.093ZM306.642 465.166C306.397 464.376 306.258 463.93 306.227 463.826C306.196 463.722 306.175 463.641 306.161 463.581C306.106 463.794 305.948 464.323 305.688 465.166H306.642ZM309.17 464.75H309.425C309.664 464.75 309.843 464.704 309.961 464.61C310.08 464.515 310.139 464.377 310.139 464.197C310.139 464.015 310.089 463.88 309.989 463.793C309.89 463.707 309.735 463.663 309.523 463.663H309.17V464.75ZM310.923 464.169C310.923 464.563 310.8 464.865 310.553 465.073C310.307 465.282 309.957 465.387 309.503 465.387H309.17V466.689H308.393V463.027H309.563C310.007 463.027 310.345 463.123 310.575 463.315C310.807 463.505 310.923 463.79 310.923 464.169ZM313.857 466.689L313.591 465.817H312.256L311.99 466.689H311.154L312.446 463.012H313.396L314.693 466.689H313.857ZM313.406 465.166C313.16 464.376 313.022 463.93 312.99 463.826C312.96 463.722 312.938 463.641 312.925 463.581C312.87 463.794 312.712 464.323 312.451 465.166H313.406Z" fill="white"/>
<rect x="267.797" y="488.6" width="65.2563" height="43.5042" fill="#34558B"/>
<path d="M284.416 504.892H285.555C286.075 504.892 286.451 504.967 286.685 505.115C286.921 505.262 287.038 505.497 287.038 505.819C287.038 506.038 286.987 506.218 286.883 506.358C286.781 506.498 286.645 506.582 286.475 506.611V506.636C286.707 506.688 286.874 506.784 286.976 506.926C287.079 507.068 287.131 507.257 287.131 507.493C287.131 507.827 287.01 508.087 286.768 508.274C286.527 508.461 286.2 508.555 285.786 508.555H284.416V504.892ZM285.192 506.343H285.643C285.853 506.343 286.005 506.31 286.099 506.245C286.194 506.18 286.242 506.072 286.242 505.922C286.242 505.782 286.19 505.681 286.086 505.621C285.985 505.56 285.823 505.529 285.6 505.529H285.192V506.343ZM285.192 506.959V507.913H285.698C285.912 507.913 286.07 507.872 286.172 507.791C286.273 507.709 286.324 507.584 286.324 507.415C286.324 507.111 286.107 506.959 285.673 506.959H285.192ZM289.972 508.555H287.862V504.892H289.972V505.529H288.639V506.333H289.879V506.969H288.639V507.913H289.972V508.555ZM291.515 506.616H291.77C292.009 506.616 292.188 506.569 292.306 506.476C292.425 506.38 292.484 506.243 292.484 506.062C292.484 505.88 292.434 505.746 292.334 505.659C292.235 505.572 292.08 505.529 291.868 505.529H291.515V506.616ZM293.268 506.035C293.268 506.429 293.145 506.73 292.897 506.939C292.652 507.148 292.302 507.252 291.848 507.252H291.515V508.555H290.738V504.892H291.908C292.352 504.892 292.69 504.988 292.92 505.18C293.152 505.371 293.268 505.656 293.268 506.035ZM295.515 505.486C295.223 505.486 294.997 505.596 294.836 505.817C294.676 506.036 294.596 506.341 294.596 506.734C294.596 507.55 294.902 507.959 295.515 507.959C295.772 507.959 296.084 507.894 296.45 507.766V508.417C296.149 508.542 295.813 508.605 295.443 508.605C294.91 508.605 294.502 508.444 294.22 508.121C293.938 507.797 293.797 507.333 293.797 506.729C293.797 506.348 293.866 506.015 294.005 505.729C294.143 505.442 294.342 505.222 294.601 505.07C294.861 504.917 295.166 504.84 295.515 504.84C295.871 504.84 296.228 504.926 296.587 505.098L296.337 505.729C296.2 505.664 296.062 505.607 295.924 505.559C295.785 505.51 295.649 505.486 295.515 505.486ZM297.231 504.892H297.93V506.661L297.92 507.134L297.895 507.673H297.91L299.601 504.892H300.53V508.555H299.839V506.796C299.839 506.561 299.854 506.212 299.884 505.749H299.864L298.165 508.555H297.231V504.892ZM302.687 507.149L301.83 508.555H300.969L302.011 506.944C301.804 506.86 301.645 506.732 301.535 506.558C301.424 506.383 301.369 506.177 301.369 505.939C301.369 505.604 301.488 505.346 301.725 505.165C301.964 504.983 302.306 504.892 302.752 504.892H303.944V508.555H303.168V507.149H302.687ZM303.168 505.529H302.785C302.584 505.529 302.429 505.565 302.319 505.636C302.209 505.708 302.153 505.828 302.153 505.995C302.153 506.157 302.207 506.284 302.314 506.378C302.421 506.471 302.584 506.518 302.805 506.518H303.168V505.529ZM305.763 507.908H306.046C306.288 507.424 306.48 506.941 306.62 506.458C306.76 505.974 306.864 505.452 306.933 504.892H309.067V507.908H309.556V509.622H308.807V508.555H306.512V509.622H305.763V507.908ZM307.549 505.539C307.496 505.921 307.406 506.326 307.281 506.754C307.158 507.181 307.018 507.566 306.863 507.908H308.293V505.539H307.549ZM313.02 508.555H312.246V505.539H311.349L311.309 505.874C311.206 506.728 311.114 507.327 311.034 507.673C310.955 508.017 310.84 508.259 310.688 508.399C310.536 508.54 310.331 508.608 310.072 508.605C309.931 508.605 309.808 508.586 309.701 508.55V507.913C309.798 507.947 309.889 507.964 309.974 507.964C310.062 507.964 310.133 507.923 310.184 507.843C310.236 507.761 310.285 507.611 310.33 507.392C310.376 507.172 310.437 506.812 310.513 506.313C310.589 505.812 310.654 505.338 310.708 504.892H313.02V508.555ZM315.177 507.149L314.32 508.555H313.458L314.5 506.944C314.293 506.86 314.135 506.732 314.025 506.558C313.914 506.383 313.859 506.177 313.859 505.939C313.859 505.604 313.978 505.346 314.215 505.165C314.454 504.983 314.796 504.892 315.242 504.892H316.434V508.555H315.658V507.149H315.177ZM315.658 505.529H315.275C315.074 505.529 314.919 505.565 314.809 505.636C314.698 505.708 314.643 505.828 314.643 505.995C314.643 506.157 314.697 506.284 314.804 506.378C314.91 506.471 315.074 506.518 315.295 506.518H315.658V505.529ZM288.171 513.486C287.878 513.486 287.652 513.596 287.492 513.817C287.331 514.036 287.251 514.341 287.251 514.734C287.251 515.55 287.558 515.959 288.171 515.959C288.428 515.959 288.739 515.894 289.105 515.766V516.417C288.804 516.542 288.469 516.605 288.098 516.605C287.565 516.605 287.158 516.444 286.876 516.121C286.593 515.797 286.452 515.333 286.452 514.729C286.452 514.348 286.521 514.015 286.66 513.729C286.799 513.442 286.997 513.222 287.256 513.07C287.517 512.917 287.822 512.84 288.171 512.84C288.526 512.84 288.884 512.926 289.243 513.098L288.992 513.729C288.855 513.664 288.718 513.607 288.579 513.559C288.44 513.51 288.304 513.486 288.171 513.486ZM292.128 516.555L291.863 515.683H290.528L290.262 516.555H289.426L290.718 512.877H291.668L292.965 516.555H292.128ZM291.678 515.032C291.432 514.242 291.293 513.795 291.262 513.691C291.232 513.588 291.21 513.506 291.197 513.446C291.141 513.66 290.984 514.188 290.723 515.032H291.678ZM293.429 512.892H294.127V514.661L294.117 515.134L294.092 515.673H294.107L295.798 512.892H296.728V516.555H296.036V514.796C296.036 514.561 296.051 514.212 296.081 513.749H296.061L294.363 516.555H293.429V512.892ZM296.292 511.703C296.26 512.015 296.142 512.243 295.939 512.386C295.735 512.528 295.441 512.599 295.057 512.599C294.661 512.599 294.368 512.531 294.178 512.394C293.989 512.257 293.883 512.027 293.859 511.703H294.543C294.555 511.875 294.598 511.996 294.671 512.066C294.746 512.134 294.88 512.168 295.072 512.168C295.24 512.168 295.366 512.131 295.448 512.056C295.531 511.979 295.582 511.861 295.6 511.703H296.292ZM297.216 515.908H297.499C297.741 515.424 297.933 514.941 298.073 514.458C298.213 513.974 298.317 513.452 298.386 512.892H300.52V515.908H301.009V517.622H300.26V516.555H297.965V517.622H297.216V515.908ZM299.002 513.539C298.949 513.921 298.859 514.326 298.734 514.754C298.611 515.181 298.471 515.566 298.316 515.908H299.746V513.539H299.002ZM302.351 514.298H302.657C303.135 514.298 303.504 514.395 303.764 514.588C304.025 514.782 304.155 515.056 304.155 515.41C304.155 516.173 303.651 516.555 302.642 516.555H301.575V512.892H303.889V513.534H302.351V514.298ZM302.351 515.918H302.612C302.874 515.918 303.066 515.877 303.188 515.793C303.31 515.708 303.371 515.58 303.371 515.41C303.371 515.241 303.309 515.12 303.185 515.047C303.062 514.972 302.85 514.934 302.549 514.934H302.351V515.918ZM307.093 516.555L306.828 515.683H305.493L305.227 516.555H304.39L305.683 512.877H306.632L307.93 516.555H307.093ZM306.642 515.032C306.397 514.242 306.258 513.795 306.227 513.691C306.196 513.588 306.175 513.506 306.161 513.446C306.106 513.66 305.948 514.188 305.688 515.032H306.642ZM309.17 514.616H309.425C309.664 514.616 309.843 514.569 309.961 514.476C310.08 514.38 310.139 514.243 310.139 514.062C310.139 513.88 310.089 513.746 309.989 513.659C309.89 513.572 309.735 513.529 309.523 513.529H309.17V514.616ZM310.923 514.035C310.923 514.429 310.8 514.73 310.553 514.939C310.307 515.148 309.957 515.252 309.503 515.252H309.17V516.555H308.393V512.892H309.563C310.007 512.892 310.345 512.988 310.575 513.18C310.807 513.371 310.923 513.656 310.923 514.035ZM313.857 516.555L313.591 515.683H312.256L311.99 516.555H311.154L312.446 512.877H313.396L314.693 516.555H313.857ZM313.406 515.032C313.16 514.242 313.022 513.795 312.99 513.691C312.96 513.588 312.938 513.506 312.925 513.446C312.87 513.66 312.712 514.188 312.451 515.032H313.406Z" fill="white"/>
<rect x="267.797" y="538.466" width="65.2563" height="43.5042" fill="#34558B"/>
<path d="M284.416 554.758H285.555C286.075 554.758 286.451 554.832 286.685 554.981C286.921 555.128 287.038 555.362 287.038 555.684C287.038 555.903 286.987 556.083 286.883 556.223C286.781 556.363 286.645 556.448 286.475 556.476V556.501C286.707 556.553 286.874 556.65 286.976 556.792C287.079 556.934 287.131 557.122 287.131 557.358C287.131 557.692 287.01 557.952 286.768 558.139C286.527 558.326 286.2 558.42 285.786 558.42H284.416V554.758ZM285.192 556.208H285.643C285.853 556.208 286.005 556.175 286.099 556.11C286.194 556.045 286.242 555.937 286.242 555.787C286.242 555.647 286.19 555.547 286.086 555.487C285.985 555.425 285.823 555.394 285.6 555.394H285.192V556.208ZM285.192 556.824V557.779H285.698C285.912 557.779 286.07 557.738 286.172 557.656C286.273 557.574 286.324 557.449 286.324 557.28C286.324 556.976 286.107 556.824 285.673 556.824H285.192ZM289.972 558.42H287.862V554.758H289.972V555.394H288.639V556.198H289.879V556.834H288.639V557.779H289.972V558.42ZM291.515 556.481H291.77C292.009 556.481 292.188 556.434 292.306 556.341C292.425 556.246 292.484 556.108 292.484 555.927C292.484 555.745 292.434 555.611 292.334 555.524C292.235 555.437 292.08 555.394 291.868 555.394H291.515V556.481ZM293.268 555.9C293.268 556.294 293.145 556.595 292.897 556.804C292.652 557.013 292.302 557.117 291.848 557.117H291.515V558.42H290.738V554.758H291.908C292.352 554.758 292.69 554.854 292.92 555.046C293.152 555.236 293.268 555.521 293.268 555.9ZM295.515 555.351C295.223 555.351 294.997 555.462 294.836 555.682C294.676 555.901 294.596 556.206 294.596 556.599C294.596 557.415 294.902 557.824 295.515 557.824C295.772 557.824 296.084 557.759 296.45 557.631V558.282C296.149 558.407 295.813 558.47 295.443 558.47C294.91 558.47 294.502 558.309 294.22 557.987C293.938 557.663 293.797 557.198 293.797 556.594C293.797 556.213 293.866 555.88 294.005 555.594C294.143 555.307 294.342 555.087 294.601 554.935C294.861 554.782 295.166 554.705 295.515 554.705C295.871 554.705 296.228 554.791 296.587 554.963L296.337 555.594C296.2 555.529 296.062 555.472 295.924 555.424C295.785 555.376 295.649 555.351 295.515 555.351ZM297.231 554.758H297.93V556.526L297.92 557L297.895 557.538H297.91L299.601 554.758H300.53V558.42H299.839V556.661C299.839 556.426 299.854 556.077 299.884 555.614H299.864L298.165 558.42H297.231V554.758ZM302.687 557.015L301.83 558.42H300.969L302.011 556.809C301.804 556.726 301.645 556.597 301.535 556.423C301.424 556.248 301.369 556.042 301.369 555.805C301.369 555.469 301.488 555.211 301.725 555.031C301.964 554.849 302.306 554.758 302.752 554.758H303.944V558.42H303.168V557.015H302.687ZM303.168 555.394H302.785C302.584 555.394 302.429 555.43 302.319 555.502C302.209 555.573 302.153 555.693 302.153 555.86C302.153 556.022 302.207 556.15 302.314 556.243C302.421 556.337 302.584 556.383 302.805 556.383H303.168V555.394ZM305.763 557.774H306.046C306.288 557.289 306.48 556.806 306.62 556.323C306.76 555.839 306.864 555.317 306.933 554.758H309.067V557.774H309.556V559.487H308.807V558.42H306.512V559.487H305.763V557.774ZM307.549 555.404C307.496 555.786 307.406 556.191 307.281 556.619C307.158 557.046 307.018 557.431 306.863 557.774H308.293V555.404H307.549ZM313.02 558.42H312.246V555.404H311.349L311.309 555.74C311.206 556.593 311.114 557.192 311.034 557.538C310.955 557.882 310.84 558.124 310.688 558.265C310.536 558.405 310.331 558.473 310.072 558.47C309.931 558.47 309.808 558.452 309.701 558.415V557.779C309.798 557.812 309.889 557.829 309.974 557.829C310.062 557.829 310.133 557.789 310.184 557.709C310.236 557.627 310.285 557.476 310.33 557.258C310.376 557.037 310.437 556.677 310.513 556.178C310.589 555.677 310.654 555.204 310.708 554.758H313.02V558.42ZM315.177 557.015L314.32 558.42H313.458L314.5 556.809C314.293 556.726 314.135 556.597 314.025 556.423C313.914 556.248 313.859 556.042 313.859 555.805C313.859 555.469 313.978 555.211 314.215 555.031C314.454 554.849 314.796 554.758 315.242 554.758H316.434V558.42H315.658V557.015H315.177ZM315.658 555.394H315.275C315.074 555.394 314.919 555.43 314.809 555.502C314.698 555.573 314.643 555.693 314.643 555.86C314.643 556.022 314.697 556.15 314.804 556.243C314.91 556.337 315.074 556.383 315.295 556.383H315.658V555.394ZM288.171 563.351C287.878 563.351 287.652 563.462 287.492 563.682C287.331 563.901 287.251 564.206 287.251 564.599C287.251 565.415 287.558 565.824 288.171 565.824C288.428 565.824 288.739 565.759 289.105 565.631V566.282C288.804 566.407 288.469 566.47 288.098 566.47C287.565 566.47 287.158 566.309 286.876 565.987C286.593 565.663 286.452 565.198 286.452 564.594C286.452 564.213 286.521 563.88 286.66 563.594C286.799 563.307 286.997 563.087 287.256 562.935C287.517 562.782 287.822 562.705 288.171 562.705C288.526 562.705 288.884 562.791 289.243 562.963L288.992 563.594C288.855 563.529 288.718 563.472 288.579 563.424C288.44 563.376 288.304 563.351 288.171 563.351ZM292.128 566.42L291.863 565.548H290.528L290.262 566.42H289.426L290.718 562.743H291.668L292.965 566.42H292.128ZM291.678 564.897C291.432 564.107 291.293 563.66 291.262 563.557C291.232 563.453 291.21 563.371 291.197 563.311C291.141 563.525 290.984 564.054 290.723 564.897H291.678ZM293.429 562.758H294.127V564.526L294.117 565L294.092 565.538H294.107L295.798 562.758H296.728V566.42H296.036V564.661C296.036 564.426 296.051 564.077 296.081 563.614H296.061L294.363 566.42H293.429V562.758ZM296.292 561.568C296.26 561.88 296.142 562.108 295.939 562.252C295.735 562.394 295.441 562.465 295.057 562.465C294.661 562.465 294.368 562.396 294.178 562.259C293.989 562.122 293.883 561.892 293.859 561.568H294.543C294.555 561.74 294.598 561.861 294.671 561.931C294.746 561.999 294.88 562.034 295.072 562.034C295.24 562.034 295.366 561.996 295.448 561.921C295.531 561.844 295.582 561.726 295.6 561.568H296.292ZM297.216 565.774H297.499C297.741 565.289 297.933 564.806 298.073 564.323C298.213 563.839 298.317 563.317 298.386 562.758H300.52V565.774H301.009V567.487H300.26V566.42H297.965V567.487H297.216V565.774ZM299.002 563.404C298.949 563.786 298.859 564.191 298.734 564.619C298.611 565.046 298.471 565.431 298.316 565.774H299.746V563.404H299.002ZM302.351 564.163H302.657C303.135 564.163 303.504 564.26 303.764 564.454C304.025 564.647 304.155 564.921 304.155 565.275C304.155 566.038 303.651 566.42 302.642 566.42H301.575V562.758H303.889V563.399H302.351V564.163ZM302.351 565.784H302.612C302.874 565.784 303.066 565.742 303.188 565.658C303.31 565.573 303.371 565.445 303.371 565.275C303.371 565.106 303.309 564.985 303.185 564.912C303.062 564.837 302.85 564.799 302.549 564.799H302.351V565.784ZM307.093 566.42L306.828 565.548H305.493L305.227 566.42H304.39L305.683 562.743H306.632L307.93 566.42H307.093ZM306.642 564.897C306.397 564.107 306.258 563.66 306.227 563.557C306.196 563.453 306.175 563.371 306.161 563.311C306.106 563.525 305.948 564.054 305.688 564.897H306.642ZM309.17 564.481H309.425C309.664 564.481 309.843 564.434 309.961 564.341C310.08 564.246 310.139 564.108 310.139 563.927C310.139 563.745 310.089 563.611 309.989 563.524C309.89 563.437 309.735 563.394 309.523 563.394H309.17V564.481ZM310.923 563.9C310.923 564.294 310.8 564.595 310.553 564.804C310.307 565.013 309.957 565.117 309.503 565.117H309.17V566.42H308.393V562.758H309.563C310.007 562.758 310.345 562.854 310.575 563.046C310.807 563.236 310.923 563.521 310.923 563.9ZM313.857 566.42L313.591 565.548H312.256L311.99 566.42H311.154L312.446 562.743H313.396L314.693 566.42H313.857ZM313.406 564.897C313.16 564.107 313.022 563.66 312.99 563.557C312.96 563.453 312.938 563.371 312.925 563.311C312.87 563.525 312.712 564.054 312.451 564.897H313.406Z" fill="white"/>
<rect width="394" height="25.2406" transform="matrix(1 0 0 -1 0 25.2402)" fill="#34558B"/>
<path d="M154.463 10.9566H155.603C156.122 10.9566 156.499 11.0309 156.732 11.1796C156.968 11.3265 157.086 11.5611 157.086 11.8835C157.086 12.1022 157.034 12.2817 156.93 12.422C156.828 12.5623 156.692 12.6466 156.522 12.675V12.7001C156.754 12.7518 156.921 12.8487 157.023 12.9907C157.126 13.1326 157.178 13.3213 157.178 13.5568C157.178 13.8908 157.057 14.1513 156.815 14.3383C156.575 14.5254 156.247 14.6189 155.833 14.6189H154.463V10.9566ZM155.239 12.407H155.69C155.901 12.407 156.053 12.3744 156.146 12.3093C156.241 12.2442 156.289 12.1365 156.289 11.9862C156.289 11.8459 156.237 11.7457 156.134 11.6856C156.032 11.6238 155.87 11.5929 155.648 11.5929H155.239V12.407ZM155.239 13.0232V13.9776H155.745C155.959 13.9776 156.117 13.9367 156.219 13.8549C156.321 13.773 156.372 13.6478 156.372 13.4791C156.372 13.1752 156.155 13.0232 155.72 13.0232H155.239ZM160.019 14.6189H157.91V10.9566H160.019V11.5929H158.686V12.397H159.926V13.0332H158.686V13.9776H160.019V14.6189ZM161.562 12.68H161.817C162.056 12.68 162.235 12.6333 162.354 12.5398C162.472 12.4446 162.531 12.3068 162.531 12.1264C162.531 11.9444 162.481 11.81 162.381 11.7231C162.283 11.6363 162.127 11.5929 161.915 11.5929H161.562V12.68ZM163.315 12.0989C163.315 12.493 163.192 12.7944 162.945 13.0032C162.699 13.2119 162.349 13.3163 161.895 13.3163H161.562V14.6189H160.785V10.9566H161.955C162.399 10.9566 162.737 11.0526 162.967 11.2447C163.199 11.4351 163.315 11.7198 163.315 12.0989ZM165.562 11.5503C165.27 11.5503 165.044 11.6605 164.884 11.8809C164.723 12.0997 164.643 12.4053 164.643 12.7978C164.643 13.6144 164.95 14.0227 165.562 14.0227C165.82 14.0227 166.131 13.9584 166.497 13.8298V14.4811C166.196 14.6064 165.861 14.669 165.49 14.669C164.957 14.669 164.55 14.5078 164.267 14.1855C163.985 13.8616 163.844 13.3973 163.844 12.7928C163.844 12.412 163.913 12.0788 164.052 11.7933C164.191 11.506 164.389 11.2864 164.648 11.1345C164.909 10.9808 165.213 10.904 165.562 10.904C165.918 10.904 166.276 10.99 166.635 11.162L166.384 11.7933C166.247 11.7281 166.109 11.6714 165.971 11.6229C165.832 11.5745 165.696 11.5503 165.562 11.5503ZM167.278 10.9566H167.977V12.7251L167.967 13.1986L167.942 13.7371H167.957L169.648 10.9566H170.577V14.6189H169.886V12.8604C169.886 12.6249 169.901 12.2759 169.931 11.8133H169.911L168.213 14.6189H167.278V10.9566ZM172.734 13.2136L171.878 14.6189H171.016L172.058 13.0082C171.851 12.9247 171.692 12.7961 171.582 12.6224C171.472 12.4471 171.417 12.2408 171.417 12.0037C171.417 11.668 171.535 11.41 171.772 11.2297C172.011 11.0476 172.353 10.9566 172.799 10.9566H173.992V14.6189H173.215V13.2136H172.734ZM173.215 11.5929H172.832C172.632 11.5929 172.476 11.6288 172.366 11.7006C172.256 11.7724 172.201 11.8918 172.201 12.0588C172.201 12.2208 172.254 12.3485 172.361 12.4421C172.468 12.5356 172.632 12.5823 172.852 12.5823H173.215V11.5929ZM175.81 13.9726H176.093C176.336 13.4883 176.527 13.0049 176.667 12.5222C176.807 12.0379 176.912 11.5161 176.98 10.9566H179.114V13.9726H179.603V15.686H178.854V14.6189H176.559V15.686H175.81V13.9726ZM177.596 11.6029C177.543 11.9853 177.454 12.3903 177.328 12.8178C177.205 13.2453 177.065 13.6303 176.91 13.9726H178.34V11.6029H177.596ZM183.067 14.6189H182.293V11.6029H181.396L181.356 11.9386C181.253 12.7919 181.161 13.3915 181.081 13.7371C181.002 14.0812 180.887 14.3233 180.735 14.4636C180.583 14.6039 180.378 14.6723 180.119 14.669C179.979 14.669 179.855 14.6506 179.748 14.6139V13.9776C179.845 14.011 179.936 14.0277 180.021 14.0277C180.11 14.0277 180.18 13.9876 180.232 13.9075C180.283 13.8257 180.332 13.6754 180.377 13.4566C180.424 13.2361 180.485 12.8763 180.56 12.3769C180.637 11.8759 180.702 11.4025 180.755 10.9566H183.067V14.6189ZM185.224 13.2136L184.367 14.6189H183.506L184.548 13.0082C184.341 12.9247 184.182 12.7961 184.072 12.6224C183.962 12.4471 183.906 12.2408 183.906 12.0037C183.906 11.668 184.025 11.41 184.262 11.2297C184.501 11.0476 184.843 10.9566 185.289 10.9566H186.482V14.6189H185.705V13.2136H185.224ZM185.705 11.5929H185.322C185.121 11.5929 184.966 11.6288 184.856 11.7006C184.746 11.7724 184.691 11.8918 184.691 12.0588C184.691 12.2208 184.744 12.3485 184.851 12.4421C184.958 12.5356 185.121 12.5823 185.342 12.5823H185.705V11.5929ZM188.736 10.9566H189.876C190.395 10.9566 190.772 11.0309 191.006 11.1796C191.241 11.3265 191.359 11.5611 191.359 11.8835C191.359 12.1022 191.307 12.2817 191.203 12.422C191.102 12.5623 190.965 12.6466 190.795 12.675V12.7001C191.027 12.7518 191.194 12.8487 191.296 12.9907C191.4 13.1326 191.451 13.3213 191.451 13.5568C191.451 13.8908 191.33 14.1513 191.088 14.3383C190.848 14.5254 190.52 14.6189 190.106 14.6189H188.736V10.9566ZM189.513 12.407H189.963C190.174 12.407 190.326 12.3744 190.419 12.3093C190.515 12.2442 190.562 12.1365 190.562 11.9862C190.562 11.8459 190.51 11.7457 190.407 11.6856C190.305 11.6238 190.143 11.5929 189.921 11.5929H189.513V12.407ZM189.513 13.0232V13.9776H190.019C190.232 13.9776 190.39 13.9367 190.492 13.8549C190.594 13.773 190.645 13.6478 190.645 13.4791C190.645 13.1752 190.428 13.0232 189.994 13.0232H189.513ZM194.292 14.6189H192.183V10.9566H194.292V11.5929H192.959V12.397H194.199V13.0332H192.959V13.9776H194.292V14.6189ZM195.835 12.68H196.091C196.329 12.68 196.508 12.6333 196.627 12.5398C196.745 12.4446 196.805 12.3068 196.805 12.1264C196.805 11.9444 196.755 11.81 196.654 11.7231C196.556 11.6363 196.4 11.5929 196.188 11.5929H195.835V12.68ZM197.589 12.0989C197.589 12.493 197.465 12.7944 197.218 13.0032C196.972 13.2119 196.623 13.3163 196.168 13.3163H195.835V14.6189H195.059V10.9566H196.228C196.673 10.9566 197.01 11.0526 197.24 11.2447C197.473 11.4351 197.589 11.7198 197.589 12.0989ZM201.241 14.6189H200.354L199.502 13.2336L198.651 14.6189H197.819L199.034 12.7301L197.897 10.9566H198.753L199.543 12.2742L200.317 10.9566H201.153L200.003 12.7727L201.241 14.6189ZM204.703 14.6189H203.929V13.0383H202.478V14.6189H201.702V10.9566H202.478V12.392H203.929V10.9566H204.703V14.6189ZM207.739 14.6189H205.63V10.9566H207.739V11.5929H206.406V12.397H207.646V13.0332H206.406V13.9776H207.739V14.6189ZM208.505 10.9566H209.204V12.7251L209.194 13.1986L209.169 13.7371H209.184L210.875 10.9566H211.804V14.6189H211.113V12.8604C211.113 12.6249 211.128 12.2759 211.158 11.8133H211.138L209.44 14.6189H208.505V10.9566ZM211.369 9.76674C211.337 10.079 211.219 10.307 211.015 10.4506C210.812 10.5926 210.518 10.6635 210.134 10.6635C209.738 10.6635 209.445 10.5951 209.254 10.4581C209.066 10.3212 208.96 10.0907 208.936 9.76674H209.62C209.632 9.93875 209.674 10.0598 209.748 10.13C209.823 10.1984 209.957 10.2327 210.149 10.2327C210.317 10.2327 210.443 10.1951 210.524 10.1199C210.608 10.0431 210.659 9.92539 210.677 9.76674H211.369ZM214.838 12.68H215.093C215.332 12.68 215.511 12.6333 215.63 12.5398C215.748 12.4446 215.807 12.3068 215.807 12.1264C215.807 11.9444 215.757 11.81 215.657 11.7231C215.559 11.6363 215.403 11.5929 215.191 11.5929H214.838V12.68ZM216.591 12.0989C216.591 12.493 216.468 12.7944 216.221 13.0032C215.975 13.2119 215.625 13.3163 215.171 13.3163H214.838V14.6189H214.061V10.9566H215.231C215.675 10.9566 216.013 11.0526 216.243 11.2447C216.475 11.4351 216.591 11.7198 216.591 12.0989ZM219.392 14.6189H217.283V10.9566H219.392V11.5929H218.059V12.397H219.299V13.0332H218.059V13.9776H219.392V14.6189ZM223.145 14.6189H222.263L220.935 12.7627V14.6189H220.159V10.9566H220.935V12.7301L222.248 10.9566H223.074L221.739 12.7151L223.145 14.6189ZM226.504 14.6189H225.73V11.6029H224.833L224.793 11.9386C224.689 12.7919 224.597 13.3915 224.517 13.7371C224.439 14.0812 224.324 14.3233 224.172 14.4636C224.02 14.6039 223.814 14.6723 223.555 14.669C223.415 14.669 223.291 14.6506 223.185 14.6139V13.9776C223.281 14.011 223.372 14.0277 223.458 14.0277C223.546 14.0277 223.616 13.9876 223.668 13.9075C223.72 13.8257 223.768 13.6754 223.813 13.4566C223.86 13.2361 223.921 12.8763 223.996 12.3769C224.073 11.8759 224.138 11.4025 224.192 10.9566H226.504V14.6189ZM229.67 14.6189L229.404 13.7472H228.069L227.804 14.6189H226.967L228.26 10.9416H229.209L230.507 14.6189H229.67ZM229.219 13.0959C228.974 12.306 228.835 11.8592 228.803 11.7557C228.773 11.6522 228.752 11.5703 228.738 11.5102C228.683 11.724 228.525 12.2525 228.265 13.0959H229.219ZM232.521 14.6189L231.639 11.7457H231.616C231.648 12.3302 231.664 12.7201 231.664 12.9155V14.6189H230.97V10.9566H232.027L232.894 13.7572H232.909L233.828 10.9566H234.885V14.6189H234.161V12.8854C234.161 12.8036 234.162 12.7093 234.164 12.6024C234.167 12.4955 234.179 12.2116 234.199 11.7507H234.176L233.232 14.6189H232.521ZM238.315 13.4741C238.315 13.8549 238.188 14.1413 237.934 14.3333C237.682 14.5237 237.308 14.6189 236.812 14.6189H235.81V10.9566H236.586V12.3619H236.837C237.306 12.3619 237.669 12.4596 237.926 12.655C238.185 12.8487 238.315 13.1218 238.315 13.4741ZM236.586 13.9826H236.789C237.045 13.9826 237.232 13.9409 237.35 13.8574C237.469 13.7722 237.528 13.6445 237.528 13.4741C237.528 13.3038 237.471 13.1819 237.355 13.1084C237.242 13.0349 237.041 12.9982 236.754 12.9982H236.586V13.9826ZM239.535 14.6189H238.761V10.9566H239.535V14.6189Z" fill="white"/>
</svg>
